<?xml version="1.0" encoding="utf-8"?>
<!-- Generator: Adobe Illustrator 15.1.0, SVG Export Plug-In . SVG Version: 6.00 Build 0)  -->
<!DOCTYPE svg PUBLIC "-//W3C//DTD SVG 1.1//EN" "http://www.w3.org/Graphics/SVG/1.1/DTD/svg11.dtd">
<svg version="1.1" id="Слой_1" xmlns="http://www.w3.org/2000/svg" xmlns:xlink="http://www.w3.org/1999/xlink" x="0px" y="0px"
	 width="900px" height="900px" viewBox="0 0 900 900" enable-background="new 0 0 900 900" xml:space="preserve">
<g>
	<g>
		<g>
			<path fill="#942020" d="M426.987,185.592l-0.365,499.183c-0.004,2.041,0.125,4.013,0.366,5.874
				c-20.798,4.793-37.167,25.958-40.603,52.681c1.913,0.76,3.901,1.148,5.935,1.158c2.126-0.003,4.18-0.432,6.178-1.247
				c3.615-20.94,17.723-36.85,34.907-38.295c0.817,0.529,1.684,0.819,2.582,0.824c0.896,0.003,1.755-0.294,2.579-0.818
				c17.18,1.476,31.255,17.402,34.844,38.35c1.99,0.81,4.063,1.251,6.174,1.252c2.033,0.005,4.03-0.397,5.94-1.137
				c-3.394-26.733-19.722-47.921-40.522-52.743c0.251-1.873,0.376-3.844,0.38-5.873l0.37-499.191"/>
			<path fill="#942020" d="M445.854,186.605l-0.002-53.958c0.019-11.592-4.179-20.996-9.363-21
				c-5.172-0.004-9.392,9.389-9.397,20.977l0.001,53.967"/>
		</g>
	</g>
</g>
</svg>
