<?xml version="1.0" encoding="utf-8"?>
<!-- Generator: Adobe Illustrator 15.1.0, SVG Export Plug-In . SVG Version: 6.00 Build 0)  -->
<!DOCTYPE svg PUBLIC "-//W3C//DTD SVG 1.1//EN" "http://www.w3.org/Graphics/SVG/1.1/DTD/svg11.dtd">
<svg version="1.1" id="Слой_1" xmlns="http://www.w3.org/2000/svg" xmlns:xlink="http://www.w3.org/1999/xlink" x="0px" y="0px"
	 width="900px" height="900px" viewBox="0 0 900 900" enable-background="new 0 0 900 900" xml:space="preserve">
<g>
	<g>
		<g>
			<g>
				<path fill="#765C33" d="M106.598,181.162C-41.93,369.937-9.292,643.349,179.473,791.871
					c188.771,148.523,462.187,115.917,610.715-72.857c148.522-188.768,115.889-462.186-72.883-610.71
					C528.541-40.219,255.121-7.605,106.598,181.162z"/>
				<circle fill="#A07843" cx="448.391" cy="450.086" r="415.719"/>
				<path fill="#F4EEF0" d="M134.944,203.465C-1.259,376.574,28.652,627.335,201.764,763.54
					c173.115,136.208,423.871,106.277,560.074-66.832c136.205-173.11,106.29-423.863-66.825-560.071
					C521.901,0.433,271.146,30.355,134.944,203.465z"/>
				<path fill="#FBFBFC" d="M143.831,210.457c-132.348,168.21-103.275,411.847,64.93,544.19
					c168.204,132.344,411.841,103.278,544.189-64.933c132.341-168.2,103.275-411.847-64.93-544.191
					C519.814,13.18,276.171,42.258,143.831,210.457z"/>
				<g>
					<polygon fill="#514C4B" points="318.651,130.794 315.468,132.113 309.422,117.55 312.614,116.223 					"/>
					<polygon fill="#514C4B" points="291.249,143.401 288.19,145.003 280.912,131.019 283.99,129.418 					"/>
					<polygon fill="#514C4B" points="265.062,158.344 262.143,160.215 253.695,146.902 256.599,145.046 					"/>
					<polygon fill="#514C4B" points="240.275,175.519 237.543,177.601 227.943,165.099 230.676,162.999 					"/>
					<polygon fill="#514C4B" points="217.072,194.79 214.539,197.108 203.889,185.497 206.419,183.163 					"/>
					<polygon fill="#514C4B" points="195.642,215.986 193.314,218.537 181.688,207.886 184.028,205.341 					"/>
					<polygon fill="#514C4B" points="176.165,238.994 174.036,241.745 161.545,232.137 163.639,229.401 					"/>
					<polygon fill="#514C4B" points="158.724,263.621 156.87,266.51 143.577,258.061 145.422,255.142 					"/>
					<polygon fill="#514C4B" points="143.509,289.658 141.915,292.706 127.944,285.42 129.521,282.376 					"/>
					
						<rect x="120.972" y="307.602" transform="matrix(0.382 -0.9242 0.9242 0.382 -215.7347 308.3557)" fill="#514C4B" width="3.442" height="15.766"/>
					<polygon fill="#514C4B" points="120.18,345.191 119.144,348.471 104.109,343.75 105.134,340.454 					"/>
					<polygon fill="#514C4B" points="112.229,374.285 111.477,377.646 96.088,374.224 96.844,370.864 					"/>
					<polygon fill="#514C4B" points="106.841,403.953 106.385,407.372 90.748,405.316 91.211,401.886 					"/>
					<polygon fill="#514C4B" points="104.07,433.972 103.9,437.425 88.162,436.725 88.32,433.273 					"/>
					<polygon fill="#514C4B" points="103.937,464.12 104.058,467.571 88.312,468.257 88.152,464.825 					"/>
					<polygon fill="#514C4B" points="106.387,494.189 106.841,497.599 91.206,499.656 90.756,496.243 					"/>
					<polygon fill="#514C4B" points="111.467,523.897 112.213,527.267 96.826,530.69 96.088,527.312 					"/>
					<polygon fill="#514C4B" points="119.137,553.062 120.15,556.371 105.124,561.104 104.081,557.809 					"/>
					<polygon fill="#514C4B" points="129.29,581.465 130.603,584.647 116.063,590.672 114.718,587.499 					"/>
					<polygon fill="#514C4B" points="141.912,608.843 143.496,611.893 129.516,619.188 127.917,616.127 					"/>
					<polygon fill="#514C4B" points="156.849,635.035 158.704,637.947 145.395,646.426 143.55,643.514 					"/>
					<polygon fill="#514C4B" points="174.022,659.826 176.105,662.561 163.61,672.171 161.498,669.432 					"/>
					<polygon fill="#514C4B" points="193.305,683.002 195.613,685.561 183.991,696.218 181.648,693.683 					"/>
					<polygon fill="#514C4B" points="214.505,704.456 217.023,706.778 206.376,718.41 203.841,716.084 					"/>
					<polygon fill="#514C4B" points="237.512,723.942 240.229,726.044 230.623,738.566 227.906,736.462 					"/>
					<polygon fill="#514C4B" points="262.121,741.362 265.007,743.239 256.546,756.506 253.649,754.671 					"/>
					<polygon fill="#514C4B" points="288.147,756.576 291.199,758.18 283.934,772.158 280.879,770.561 					"/>
					<polygon fill="#514C4B" points="315.401,769.456 318.588,770.784 312.563,785.345 309.367,784.028 					"/>
					<polygon fill="#646363" points="343.695,779.922 346.979,780.956 342.241,795.996 338.948,794.962 					"/>
					<polygon fill="#646363" points="372.791,787.85 376.117,788.622 372.736,804.011 369.363,803.265 					"/>
					<polygon fill="#646363" points="402.429,793.258 405.877,793.706 403.822,809.344 400.396,808.896 					"/>
					<polygon fill="#646363" points="432.479,796.026 435.915,796.194 435.244,811.934 431.792,811.787 					"/>
					<polygon fill="#646363" points="462.64,796.179 466.068,796.046 466.763,811.807 463.324,811.935 					"/>
					<polygon fill="#646363" points="492.677,793.697 496.085,793.274 498.163,808.902 494.747,809.336 					"/>
					<polygon fill="#646363" points="522.392,788.637 525.761,787.896 529.198,803.273 525.81,804.024 					"/>
					<polygon fill="#646363" points="551.562,780.964 554.852,779.938 559.592,794.978 556.303,796.01 					"/>
					<polygon fill="#646363" points="579.951,770.792 583.138,769.486 589.178,784.052 586.005,785.36 					"/>
					<polygon fill="#646363" points="607.338,758.18 610.405,756.613 617.701,770.595 614.602,772.18 					"/>
					<polygon fill="#646363" points="633.537,743.234 636.455,741.405 644.918,754.688 642.005,756.534 					"/>
					<polygon fill="#646363" points="658.32,726.073 661.076,723.98 670.666,736.487 667.92,738.603 					"/>
					<polygon fill="#646363" points="681.51,706.79 684.065,704.499 694.729,716.099 692.18,718.441 					"/>
					<polygon fill="#646363" points="702.94,685.593 705.288,683.086 716.905,693.706 714.58,696.25 					"/>
					<polygon fill="#646363" points="722.433,662.591 724.567,659.877 737.057,669.453 734.957,672.198 					"/>
					<polygon fill="#646363" points="739.856,637.985 741.738,635.086 755.037,643.543 753.162,646.468 					"/>
					<polygon fill="#646363" points="755.076,611.936 756.672,608.908 770.672,616.16 769.072,619.224 					"/>
					<polygon fill="#646363" points="767.95,584.679 769.286,581.516 783.856,587.526 782.521,590.721 					"/>
					<polygon fill="#646363" points="778.412,556.403 779.462,553.132 794.5,557.853 793.459,561.141 					"/>
					<polygon fill="#646363" points="786.354,527.323 787.105,523.961 802.511,527.353 801.764,530.728 					"/>
					<polygon fill="#646363" points="791.733,497.643 792.213,494.248 807.847,496.273 807.395,499.693 					"/>
					<polygon fill="#646363" points="794.518,467.638 794.708,464.188 810.436,464.859 810.265,468.301 					"/>
					<polygon fill="#646363" points="794.677,437.469 794.546,434.037 810.306,433.324 810.439,436.778 					"/>
					<polygon fill="#646363" points="792.196,407.425 791.77,404.021 807.408,401.935 807.849,405.348 					"/>
					<polygon fill="#646363" points="787.117,377.708 786.394,374.331 801.781,370.899 802.504,374.274 					"/>
					<polygon fill="#646363" points="779.469,348.542 778.451,345.251 793.471,340.475 794.496,343.778 					"/>
					<polygon fill="#646363" points="769.296,320.144 767.986,316.957 782.539,310.912 783.877,314.1 					"/>
					<polygon fill="#646363" points="756.688,292.75 755.112,289.694 769.085,282.399 770.675,285.464 					"/>
					<polygon fill="#646363" points="741.728,266.569 739.918,263.642 753.195,255.17 755.037,258.079 					"/>
					<polygon fill="#646363" points="724.575,241.773 722.501,239.031 734.99,229.428 737.105,232.163 					"/>
					<polygon fill="#646363" points="705.319,218.587 702.991,216.029 714.609,205.369 716.938,207.91 					"/>
					<polygon fill="#646363" points="684.104,197.155 681.588,194.805 692.211,183.183 694.736,185.517 					"/>
					<polygon fill="#646363" points="661.114,177.666 658.38,175.54 667.953,163.039 670.691,165.137 					"/>
					<polygon fill="#646363" points="636.476,160.241 633.6,158.361 642.049,145.058 644.95,146.914 					"/>
					<polygon fill="#646363" points="610.467,145.023 607.43,143.402 614.659,129.424 617.726,131.02 					"/>
					<polygon fill="#646363" points="583.177,132.147 580.019,130.792 586.015,116.236 589.204,117.562 					"/>
					<polygon fill="#646363" points="554.896,121.684 551.633,120.619 556.348,105.593 559.649,106.639 					"/>
					<polygon fill="#646363" points="525.817,113.743 522.47,112.953 525.845,97.579 529.221,98.337 					"/>
					<polygon fill="#646363" points="496.152,108.348 492.735,107.888 494.764,92.249 498.191,92.699 					"/>
					<polygon fill="#514C4B" points="466.116,105.573 462.688,105.392 463.348,89.646 466.794,89.806 					"/>
					<polygon fill="#514C4B" points="435.97,105.414 432.528,105.526 431.827,89.788 435.266,89.663 					"/>
					<polygon fill="#514C4B" points="405.932,107.894 402.501,108.308 400.432,92.694 403.847,92.26 					"/>
					<polygon fill="#514C4B" points="376.217,112.982 372.829,113.698 369.396,98.327 372.759,97.581 					"/>
					<polygon fill="#514C4B" points="347.036,120.625 343.733,121.645 338.98,106.624 342.28,105.596 					"/>
					<path fill="#514C4B" d="M459.654,72.11c-0.014,2.179-0.343,4.209-0.992,6.117c-0.359,1.154-0.859,2.1-1.493,2.849
						c-0.615,0.715-1.34,1.309-2.127,1.737c-0.771,0.417-1.63,0.625-2.577,0.642c-1.038-0.024-1.987-0.295-2.837-0.852
						c-0.854-0.539-1.603-1.312-2.246-2.325c-0.466-0.732-0.87-1.72-1.212-2.934c-0.456-1.649-0.662-3.343-0.64-5.118
						c0.012-2.372,0.37-4.552,1.062-6.545c0.554-1.646,1.405-2.893,2.529-3.755c1.131-0.881,2.308-1.283,3.555-1.285
						c1.278,0.012,2.459,0.453,3.555,1.333c1.087,0.879,1.895,2.053,2.405,3.511C459.342,67.501,459.673,69.721,459.654,72.11z
						 M454.691,72.027c0.024-3.83,0.019-6.083-0.02-6.695c-0.093-1.501-0.337-2.507-0.744-3.044
						c-0.255-0.344-0.701-0.533-1.301-0.526c-0.462-0.021-0.844,0.115-1.102,0.377c-0.402,0.378-0.681,1.038-0.834,1.975
						c-0.142,0.962-0.25,4.271-0.289,9.958c-0.031,3.117,0.051,5.202,0.256,6.265c0.15,0.767,0.388,1.257,0.683,1.523
						c0.295,0.269,0.696,0.4,1.191,0.396c0.542,0.024,0.955-0.163,1.217-0.494c0.458-0.595,0.721-1.529,0.8-2.792L454.691,72.027z"
						/>
					<path fill="#646363" d="M571.258,103.869l-12.205-4.119l0.106-0.327c5.25-3.201,8.524-5.439,9.845-6.72
						c1.31-1.251,2.226-2.637,2.721-4.101c0.352-1.07,0.326-2.083-0.096-3.015c-0.438-0.92-1.14-1.553-2.09-1.879
						c-1.57-0.515-3.035-0.154-4.439,1.132l-0.492-0.386c1.192-1.791,2.517-2.944,3.965-3.504c1.438-0.562,2.89-0.595,4.354-0.098
						c1.045,0.357,1.92,0.926,2.628,1.693c0.712,0.796,1.159,1.671,1.36,2.687c0.202,1.032,0.185,1.91-0.071,2.648
						c-0.451,1.368-1.286,2.609-2.519,3.766c-1.662,1.534-4.793,3.413-9.406,5.629l4.482,1.506c1.104,0.377,1.843,0.548,2.203,0.571
						c0.367,0.032,0.691-0.035,0.972-0.18c0.289-0.157,0.726-0.525,1.309-1.096l0.555,0.172L571.258,103.869z"/>
					<path fill="#646363" d="M592.226,100.08c-0.786,2.037-1.797,3.833-3.069,5.383c-0.754,0.958-1.556,1.655-2.398,2.134
						c-0.846,0.464-1.724,0.769-2.603,0.876c-0.9,0.131-1.785,0.036-2.648-0.315c-0.972-0.366-1.77-0.947-2.37-1.778
						c-0.591-0.816-1.01-1.792-1.273-2.972c-0.163-0.836-0.205-1.916-0.105-3.177c0.16-1.694,0.566-3.366,1.199-5.013
						c0.844-2.207,1.956-4.131,3.281-5.752c1.107-1.341,2.354-2.214,3.717-2.633c1.343-0.417,2.609-0.383,3.778,0.066
						c1.188,0.47,2.146,1.275,2.858,2.492c0.703,1.207,1.045,2.595,1.021,4.137C593.549,95.665,593.085,97.87,592.226,100.08z
						 M587.606,98.271c1.371-3.588,2.151-5.688,2.349-6.284c0.43-1.445,0.562-2.479,0.371-3.117
						c-0.142-0.419-0.463-0.735-1.023-0.958c-0.445-0.154-0.839-0.177-1.183-0.029c-0.506,0.2-1,0.737-1.466,1.575
						c-0.484,0.837-1.742,3.915-3.816,9.226c-1.093,2.882-1.742,4.864-1.919,5.932c-0.129,0.763-0.092,1.318,0.089,1.688
						c0.188,0.339,0.503,0.605,0.976,0.782c0.517,0.189,0.946,0.186,1.31-0.041c0.648-0.401,1.219-1.186,1.729-2.331L587.606,98.271
						z"/>
					<path fill="#646363" d="M674.121,149.329l16.865-4.761l1.555,1.214l-8.646,11.134l1.576,1.23l-2.041,2.63l-1.589-1.207
						l-3.011,3.893l-3.505-2.749l2.995-3.871l-6.259-4.873L674.121,149.329z M675.359,150.29l5.021,3.9l5.301-6.835L675.359,150.29z
						"/>
					<path fill="#646363" d="M700.271,167.115c-1.409,1.657-2.957,3-4.657,4.049c-1.022,0.658-2.023,1.05-2.979,1.23
						c-0.947,0.16-1.873,0.158-2.757-0.031c-0.882-0.148-1.68-0.555-2.38-1.155c-0.811-0.681-1.346-1.511-1.646-2.458
						c-0.308-0.969-0.38-2.055-0.232-3.233c0.117-0.871,0.434-1.875,0.954-3.035c0.718-1.556,1.64-3.006,2.788-4.343
						c1.521-1.801,3.196-3.25,4.997-4.34c1.494-0.912,2.936-1.33,4.354-1.262c1.437,0.039,2.626,0.481,3.562,1.308
						c0.971,0.807,1.607,1.9,1.893,3.296c0.272,1.364,0.117,2.787-0.417,4.241C702.998,163.371,701.838,165.27,700.271,167.115z
						 M696.512,163.854c2.497-2.917,3.91-4.646,4.307-5.15c0.881-1.219,1.33-2.136,1.372-2.811c0.006-0.44-0.197-0.863-0.667-1.251
						c-0.344-0.299-0.735-0.413-1.088-0.41c-0.554,0.039-1.19,0.358-1.901,0.994c-0.736,0.649-2.948,3.124-6.633,7.466
						c-2.01,2.352-3.272,4.011-3.791,4.959c-0.371,0.684-0.516,1.225-0.455,1.614c0.054,0.394,0.263,0.752,0.649,1.072
						c0.398,0.351,0.827,0.483,1.251,0.401c0.738-0.173,1.554-0.715,2.414-1.645L696.512,163.854z"/>
					<path fill="#646363" d="M785.583,252.958l-0.392,0.205c-1.438-1.385-2.808-2.389-4.084-2.977
						c-1.291-0.604-2.578-0.901-3.885-0.912c-1.309,0.009-2.753,0.28-4.377,0.821c0.534,0.229,0.91,0.462,1.162,0.68
						c0.544,0.471,1.002,1.022,1.389,1.625c0.855,1.389,1.065,2.869,0.595,4.42c-0.43,1.546-1.521,2.882-3.292,3.957
						c-1.21,0.74-2.5,1.176-3.831,1.301c-1.337,0.131-2.581-0.094-3.708-0.691c-1.121-0.589-2.016-1.406-2.649-2.457
						c-0.718-1.148-1.051-2.401-1.009-3.759c0.024-1.36,0.495-2.688,1.358-3.969c0.892-1.29,2.035-2.377,3.466-3.246
						c2.071-1.271,4.341-1.976,6.746-2.062c2.435-0.105,4.75,0.429,6.945,1.631C782.219,248.726,784.068,250.548,785.583,252.958z
						 M771.635,250.589c-1.311,0.708-2.255,1.233-2.833,1.599c-1.288,0.77-2.44,1.643-3.47,2.607
						c-1.029,0.976-1.665,1.82-1.881,2.53c-0.146,0.51-0.12,0.984,0.147,1.386c0.278,0.412,0.745,0.646,1.428,0.677
						c0.697,0.036,1.801-0.42,3.277-1.321c2.548-1.563,4.107-2.943,4.716-4.15c0.357-0.786,0.354-1.505-0.057-2.17
						C772.739,251.386,772.3,250.999,771.635,250.589z"/>
					<path fill="#646363" d="M784.027,273.606c-1.902,1.066-3.848,1.779-5.799,2.145c-1.199,0.251-2.262,0.284-3.213,0.109
						c-0.959-0.194-1.796-0.529-2.579-0.994c-0.747-0.484-1.354-1.136-1.803-1.936c-0.505-0.929-0.737-1.894-0.664-2.898
						c0.048-1.006,0.362-2.026,0.925-3.086c0.406-0.776,1.067-1.618,1.958-2.513c1.199-1.181,2.606-2.21,4.121-3.073
						c2.092-1.141,4.172-1.919,6.232-2.29c1.716-0.319,3.216-0.196,4.538,0.359c1.295,0.559,2.25,1.396,2.857,2.466
						c0.617,1.125,0.826,2.373,0.58,3.746c-0.231,1.402-0.851,2.664-1.883,3.831C787.897,271.069,786.131,272.462,784.027,273.606z
						 M781.665,269.253c3.358-1.855,5.296-2.976,5.836-3.306c1.252-0.813,2.027-1.535,2.271-2.138
						c0.172-0.399,0.116-0.861-0.178-1.391c-0.216-0.426-0.519-0.67-0.866-0.787c-0.516-0.169-1.219-0.094-2.117,0.256
						c-0.911,0.342-3.859,1.875-8.846,4.628c-2.703,1.493-4.473,2.611-5.308,3.298c-0.579,0.519-0.918,0.96-0.999,1.342
						c-0.095,0.411-0.009,0.81,0.231,1.25c0.251,0.477,0.603,0.738,1.025,0.807c0.761,0.101,1.701-0.123,2.838-0.685
						L781.665,269.253z"/>
					<path fill="#646363" d="M823.082,381.676c-0.811,1.716-1.646,2.955-2.485,3.731c-0.845,0.789-1.885,1.298-3.123,1.529
						c-1.733,0.343-3.319-0.021-4.779-1.091c-1.433-1.083-2.39-2.738-2.819-4.993c-0.407-2.119-0.229-3.854,0.604-5.216
						c0.819-1.376,1.977-2.189,3.5-2.494c1.134-0.216,2.218-0.081,3.226,0.412c0.982,0.512,2.001,1.472,3.018,2.893
						c0.977-1.955,1.829-3.249,2.55-3.891c0.728-0.631,1.647-1.064,2.734-1.282c1.428-0.277,2.808,0.098,4.146,1.09
						c1.338,1.009,2.223,2.579,2.617,4.701c0.401,2.057,0.21,3.733-0.526,5.019c-0.766,1.313-1.791,2.063-3.161,2.332
						c-1.011,0.209-1.97,0.068-2.855-0.377C824.829,383.598,823.938,382.806,823.082,381.676z M819.698,377.791
						c-0.365-0.268-0.68-0.445-0.94-0.537c-0.424-0.144-0.991-0.229-1.733-0.252c-0.749-0.03-1.504,0.02-2.273,0.168
						c-0.988,0.187-1.796,0.476-2.423,0.864c-0.607,0.382-1.023,0.852-1.232,1.394c-0.2,0.506-0.26,1.029-0.162,1.525
						c0.159,0.755,0.557,1.346,1.229,1.771c0.66,0.426,1.49,0.542,2.471,0.338C816.683,382.67,818.371,380.92,819.698,377.791z
						 M823.654,380.309c0.615,0.281,1.258,0.463,1.946,0.517c0.681,0.08,1.419,0.03,2.209-0.118c1.374-0.274,2.365-0.781,2.981-1.5
						c0.468-0.559,0.628-1.22,0.484-2.016c-0.143-0.708-0.496-1.258-1.124-1.637c-0.601-0.412-1.285-0.547-2.055-0.385
						c-0.773,0.146-1.519,0.591-2.224,1.305C825.126,377.184,824.4,378.463,823.654,380.309z"/>
					<path fill="#646363" d="M825.028,402.799c-2.17,0.324-4.238,0.324-6.197-0.022c-1.197-0.188-2.223-0.539-3.048-1.042
						c-0.816-0.496-1.505-1.103-2.062-1.818c-0.527-0.717-0.874-1.525-1.016-2.451c-0.141-1.034-0.014-2.031,0.383-2.942
						c0.409-0.911,1.077-1.794,1.956-2.57c0.666-0.59,1.562-1.143,2.709-1.659c1.559-0.703,3.213-1.177,4.931-1.428
						c2.384-0.355,4.604-0.358,6.658,0.034c1.697,0.289,3.077,0.927,4.104,1.921c1.024,0.964,1.635,2.08,1.821,3.32
						c0.182,1.254-0.078,2.483-0.773,3.706c-0.691,1.211-1.72,2.186-3.099,2.912C829.513,401.779,827.395,402.431,825.028,402.799z
						 M824.334,397.864c3.784-0.541,5.988-0.896,6.605-1.012c1.463-0.339,2.435-0.755,2.892-1.234
						c0.312-0.315,0.411-0.78,0.327-1.372c-0.055-0.459-0.247-0.796-0.539-1.026c-0.432-0.339-1.124-0.5-2.106-0.5
						c-0.959-0.006-4.26,0.416-9.891,1.24c-3.068,0.447-5.101,0.86-6.119,1.229c-0.728,0.265-1.19,0.585-1.418,0.914
						c-0.198,0.333-0.266,0.757-0.196,1.235c0.075,0.529,0.312,0.909,0.689,1.127c0.653,0.348,1.614,0.477,2.874,0.357
						L824.334,397.864z"/>
					<path fill="#646363" d="M837.152,492.895l-17.818-1.839c-1.335-0.144-2.204-0.159-2.578-0.087
						c-0.39,0.097-0.728,0.31-0.994,0.651c-0.263,0.342-0.449,0.94-0.531,1.758l-0.05,0.508l-0.584-0.065l1.162-11.473l0.601,0.055
						l-0.059,0.59c-0.105,0.934-0.06,1.6,0.105,2.025c0.167,0.405,0.457,0.7,0.805,0.889c0.358,0.188,1.225,0.341,2.6,0.469
						l11.301,1.178c0.999,0.104,1.652,0.1,1.908,0.023c0.258-0.05,0.485-0.222,0.683-0.47c0.215-0.223,0.333-0.53,0.357-0.861
						c0.054-0.552-0.039-1.23-0.313-2.042l0.631-0.246l2.836,8.406L837.152,492.895z"/>
					<path fill="#646363" d="M822.895,513.124c-2.154-0.32-4.13-0.931-5.927-1.796c-1.089-0.543-1.943-1.171-2.591-1.9
						c-0.665-0.712-1.117-1.499-1.442-2.329c-0.321-0.843-0.414-1.716-0.277-2.624c0.148-1.072,0.548-1.964,1.225-2.728
						c0.648-0.764,1.536-1.405,2.62-1.895c0.803-0.373,1.813-0.636,3.069-0.801c1.693-0.213,3.419-0.213,5.15,0.061
						c2.344,0.344,4.46,1.012,6.347,1.947c1.545,0.777,2.647,1.812,3.352,3.028c0.721,1.242,0.976,2.474,0.791,3.722
						c-0.186,1.249-0.786,2.351-1.791,3.32c-1.042,0.965-2.299,1.6-3.829,1.9C827.474,513.458,825.267,513.467,822.895,513.124z
						 M823.66,508.209c3.796,0.553,6.019,0.861,6.639,0.92c1.502,0.104,2.538,0.009,3.127-0.326c0.35-0.19,0.604-0.613,0.691-1.219
						c0.075-0.447-0.005-0.813-0.214-1.141c-0.319-0.45-0.933-0.801-1.87-1.077c-0.904-0.291-4.18-0.854-9.834-1.688
						c-3.052-0.449-5.118-0.647-6.2-0.583c-0.772,0.021-1.318,0.191-1.632,0.457c-0.278,0.257-0.47,0.635-0.548,1.118
						c-0.073,0.528,0.038,0.966,0.335,1.275c0.532,0.53,1.412,0.921,2.659,1.178L823.66,508.209z"/>
					<path fill="#646363" d="M819.708,529.823c-2.151-0.407-4.072-1.088-5.836-2.064c-1.077-0.587-1.908-1.241-2.527-1.987
						c-0.62-0.756-1.043-1.566-1.32-2.423c-0.282-0.847-0.325-1.731-0.144-2.645c0.205-1.041,0.635-1.902,1.336-2.643
						c0.679-0.737,1.591-1.33,2.689-1.778c0.807-0.327,1.853-0.545,3.11-0.674c1.691-0.132,3.425-0.025,5.144,0.294
						c2.336,0.467,4.431,1.204,6.255,2.245c1.512,0.858,2.584,1.909,3.227,3.187c0.646,1.27,0.84,2.515,0.61,3.74
						c-0.243,1.237-0.884,2.324-1.939,3.242c-1.08,0.916-2.385,1.494-3.917,1.729C824.263,530.372,822.059,530.286,819.708,529.823z
						 M820.692,524.96c3.755,0.737,5.964,1.138,6.608,1.207c1.477,0.178,2.517,0.146,3.137-0.183
						c0.367-0.181,0.613-0.576,0.732-1.166c0.101-0.461,0.032-0.855-0.165-1.16c-0.301-0.462-0.889-0.872-1.793-1.17
						c-0.914-0.323-4.171-1.031-9.751-2.116c-3.054-0.59-5.116-0.886-6.191-0.872c-0.777,0.003-1.319,0.125-1.639,0.374
						c-0.314,0.267-0.5,0.608-0.62,1.119c-0.093,0.526-0.009,0.956,0.292,1.263c0.503,0.571,1.37,1.008,2.586,1.308L820.692,524.96z
						"/>
					<path fill="#646363" d="M798.32,624.954l-16.071-7.88c-1.232-0.579-2.028-0.905-2.408-0.967
						c-0.387-0.066-0.754,0.03-1.156,0.254c-0.358,0.235-0.746,0.727-1.1,1.478l-0.211,0.437l-0.55-0.259l5.084-10.349l0.543,0.262
						l-0.266,0.528c-0.406,0.83-0.606,1.47-0.588,1.939c0.003,0.449,0.144,0.84,0.445,1.1c0.252,0.304,1.022,0.764,2.263,1.346
						l10.188,5.018c0.911,0.438,1.509,0.67,1.772,0.703c0.276,0.021,0.534-0.036,0.832-0.205c0.259-0.142,0.468-0.382,0.634-0.707
						c0.233-0.48,0.381-1.159,0.427-2.025l0.641,0.005l-0.25,8.855L798.32,624.954z"/>
					<path fill="#646363" d="M769.147,632.266l6.196-11.311l0.309,0.173c2.235,5.721,3.863,9.331,4.882,10.856
						c1.008,1.543,2.214,2.666,3.574,3.405c0.997,0.533,1.971,0.69,2.972,0.431c0.992-0.26,1.738-0.809,2.212-1.703
						c0.806-1.468,0.687-2.994-0.325-4.588l0.475-0.424c1.527,1.502,2.465,3.01,2.752,4.528c0.285,1.51,0.08,2.942-0.664,4.308
						c-0.539,0.976-1.244,1.738-2.149,2.288c-0.888,0.559-1.851,0.845-2.883,0.854c-1.028,0.029-1.908-0.132-2.584-0.507
						c-1.265-0.704-2.33-1.752-3.234-3.156c-1.254-1.902-2.544-5.312-3.919-10.236l-2.276,4.146c-0.55,1.02-0.866,1.704-0.943,2.065
						c-0.096,0.354-0.101,0.672,0.009,0.98c0.081,0.315,0.372,0.804,0.862,1.489l-0.291,0.508L769.147,632.266z"/>
					<path fill="#646363" d="M769.188,653.558c-1.869-1.137-3.436-2.456-4.758-3.962c-0.787-0.916-1.365-1.821-1.67-2.744
						c-0.308-0.926-0.455-1.821-0.425-2.726c0.049-0.906,0.314-1.755,0.782-2.54c0.542-0.898,1.296-1.579,2.172-2.016
						c0.896-0.452,1.94-0.688,3.164-0.731c0.852-0.036,1.896,0.122,3.125,0.43c1.661,0.468,3.222,1.163,4.71,2.08
						c2.056,1.233,3.747,2.643,5.091,4.261c1.12,1.318,1.772,2.671,1.943,4.091c0.166,1.416-0.072,2.655-0.721,3.725
						c-0.652,1.081-1.648,1.873-2.956,2.347c-1.303,0.499-2.736,0.596-4.258,0.288C773.3,655.633,771.238,654.809,769.188,653.558z
						 M771.786,649.318c3.295,1.993,5.206,3.123,5.767,3.424c1.343,0.689,2.345,0.988,3,0.907c0.44-0.047,0.8-0.324,1.129-0.847
						c0.243-0.408,0.321-0.773,0.229-1.146c-0.108-0.529-0.542-1.111-1.275-1.709c-0.748-0.632-3.562-2.409-8.422-5.349
						c-2.645-1.617-4.464-2.623-5.502-2.965c-0.733-0.271-1.272-0.338-1.666-0.188c-0.377,0.096-0.69,0.379-0.954,0.804
						c-0.264,0.446-0.331,0.893-0.187,1.304c0.298,0.688,0.947,1.409,2,2.106L771.786,649.318z"/>
					<path fill="#646363" d="M714.744,736.746l-12.268-13.029c-0.927-0.981-1.542-1.571-1.902-1.766
						c-0.351-0.182-0.713-0.248-1.172-0.138c-0.42,0.063-0.939,0.4-1.539,0.959l-0.382,0.348l-0.41-0.431l8.409-7.891l0.4,0.42
						l-0.435,0.41c-0.67,0.638-1.079,1.172-1.218,1.605c-0.155,0.427-0.146,0.812,0.019,1.194c0.15,0.354,0.71,1.057,1.642,2.062
						l7.787,8.26c0.694,0.747,1.156,1.163,1.404,1.287c0.244,0.114,0.512,0.151,0.851,0.094c0.31-0.047,0.57-0.188,0.83-0.415
						c0.391-0.393,0.784-0.999,1.104-1.754l0.614,0.221l-3.347,8.202L714.744,736.746z"/>
					<path fill="#646363" d="M699.951,731.236l1.322,17.464l-1.502,1.294l-9.18-10.693l-1.523,1.301l-2.189-2.533l1.542-1.307
						l-3.193-3.737l3.362-2.883l3.196,3.74l6.003-5.185L699.951,731.236z M698.785,732.244l-4.819,4.157l5.615,6.551
						L698.785,732.244z"/>
					<path fill="#646363" d="M677.391,753.261c-1.344-1.723-2.347-3.525-3.037-5.388c-0.424-1.148-0.635-2.199-0.584-3.165
						c-0.007-0.95,0.195-1.863,0.563-2.692c0.341-0.827,0.872-1.527,1.612-2.101c0.815-0.635,1.741-1.026,2.752-1.116
						c0.998-0.113,2.069,0.021,3.194,0.409c0.826,0.28,1.745,0.804,2.772,1.543c1.385,1,2.61,2.2,3.7,3.592
						c1.471,1.865,2.563,3.785,3.265,5.762c0.57,1.646,0.695,3.158,0.362,4.534c-0.344,1.383-1.004,2.454-1.995,3.224
						c-0.988,0.788-2.186,1.165-3.575,1.166c-1.436,0.016-2.774-0.417-4.104-1.235C680.519,756.647,678.895,755.126,677.391,753.261
						z M681.335,750.208c2.374,3.029,3.756,4.783,4.186,5.252c1.022,1.086,1.847,1.733,2.493,1.9
						c0.412,0.106,0.868-0.025,1.331-0.396c0.38-0.288,0.587-0.612,0.638-0.986c0.075-0.533-0.111-1.239-0.59-2.071
						c-0.484-0.828-2.489-3.488-5.997-7.974c-1.913-2.447-3.285-4.001-4.085-4.708c-0.603-0.501-1.104-0.779-1.498-0.785
						c-0.404-0.003-0.787,0.133-1.185,0.433c-0.424,0.339-0.636,0.723-0.634,1.163c0.015,0.739,0.395,1.638,1.121,2.665
						L681.335,750.208z"/>
					<path fill="#646363" d="M597.08,811.816l-6.866-16.534c-0.509-1.241-0.898-2.018-1.154-2.308
						c-0.253-0.295-0.613-0.482-1.031-0.558c-0.444-0.087-1.053,0.045-1.82,0.38l-0.463,0.184l-0.221-0.565l10.639-4.417
						l0.233,0.536l-0.519,0.22c-0.884,0.373-1.467,0.736-1.745,1.084c-0.27,0.342-0.409,0.72-0.407,1.125
						c0.04,0.406,0.301,1.233,0.818,2.516l4.362,10.479c0.393,0.938,0.699,1.485,0.867,1.696c0.199,0.201,0.455,0.316,0.751,0.372
						c0.296,0.082,0.634,0.036,0.95-0.091c0.503-0.218,1.047-0.619,1.652-1.256l0.481,0.441l-6.016,6.478L597.08,811.816z"/>
					<path fill="#646363" d="M576.06,819.723l-0.15-0.425c1.674-1.114,2.924-2.239,3.782-3.383c0.849-1.133,1.401-2.323,1.677-3.604
						c0.273-1.288,0.312-2.747,0.109-4.437c-0.33,0.456-0.647,0.804-0.881,0.987c-0.592,0.443-1.231,0.772-1.917,1.027
						c-1.532,0.534-3.011,0.438-4.44-0.328c-1.435-0.76-2.492-2.102-3.175-4.037c-0.495-1.359-0.646-2.714-0.49-4.041
						c0.141-1.34,0.638-2.479,1.42-3.473c0.82-0.99,1.816-1.687,2.979-2.109c1.261-0.433,2.56-0.505,3.888-0.203
						c1.314,0.325,2.521,1.03,3.592,2.154c1.082,1.131,1.902,2.501,2.464,4.053c0.812,2.319,1.027,4.676,0.627,7.055
						c-0.414,2.386-1.423,4.537-3.045,6.442C580.881,817.315,578.728,818.76,576.06,819.723z M581.253,806.563
						c-0.429-1.415-0.763-2.445-0.979-3.114c-0.506-1.378-1.106-2.716-1.855-3.912c-0.723-1.214-1.438-1.994-2.079-2.37
						c-0.465-0.251-0.932-0.302-1.383-0.125c-0.486,0.161-0.796,0.581-0.978,1.244c-0.142,0.665,0.054,1.852,0.642,3.513
						c0.993,2.793,2.02,4.597,3.081,5.433c0.679,0.533,1.4,0.655,2.127,0.405C580.241,807.498,580.711,807.143,581.253,806.563z"/>
					<path fill="#646363" d="M556.336,814.122c-0.683-2.059-0.995-4.107-0.963-6.104c-0.015-1.209,0.18-2.27,0.551-3.178
						c0.358-0.888,0.843-1.663,1.458-2.306c0.622-0.658,1.37-1.126,2.27-1.424c0.996-0.294,1.991-0.324,2.957-0.063
						c0.975,0.253,1.926,0.755,2.85,1.508c0.682,0.547,1.363,1.361,2.077,2.414c0.931,1.433,1.673,2.985,2.187,4.659
						c0.735,2.264,1.063,4.466,1.018,6.546c-0.027,1.746-0.435,3.208-1.228,4.377c-0.812,1.163-1.818,1.955-3.003,2.334
						c-1.204,0.365-2.472,0.312-3.78-0.185c-1.316-0.483-2.445-1.357-3.378-2.597C558.057,818.414,557.051,816.415,556.336,814.122z
						 M561.075,812.672c1.169,3.64,1.855,5.771,2.087,6.356c0.549,1.411,1.098,2.306,1.654,2.667
						c0.357,0.255,0.838,0.291,1.396,0.109c0.437-0.13,0.779-0.384,0.928-0.704c0.28-0.479,0.345-1.189,0.186-2.154
						c-0.157-0.946-1.113-4.12-2.809-9.573c-0.931-2.943-1.664-4.903-2.189-5.842c-0.393-0.668-0.756-1.1-1.131-1.249
						c-0.375-0.161-0.779-0.159-1.246-0.016c-0.513,0.163-0.853,0.438-1.001,0.852c-0.258,0.718-0.213,1.679,0.089,2.906
						L561.075,812.672z"/>
					<path fill="#646363" d="M460.597,840.843l-0.631-17.892c-0.054-1.344-0.135-2.204-0.277-2.561
						c-0.134-0.367-0.391-0.665-0.766-0.891c-0.388-0.219-0.996-0.337-1.829-0.277l-0.5,0.001l-0.012-0.595l11.529-0.419l0.01,0.596
						l-0.583,0.029c-0.929,0.032-1.6,0.16-1.989,0.395c-0.381,0.216-0.631,0.537-0.77,0.908c-0.127,0.389-0.163,1.262-0.117,2.645
						l0.416,11.348c0.025,1.006,0.109,1.634,0.2,1.88c0.124,0.265,0.3,0.463,0.548,0.642c0.286,0.163,0.594,0.247,0.938,0.229
						c0.539-0.014,1.2-0.209,1.974-0.591l0.336,0.563l-7.947,3.986L460.597,840.843z"/>
					<path fill="#646363" d="M442.584,830.982c-1.524-1.162-2.587-2.212-3.189-3.182c-0.564-0.995-0.854-2.114-0.856-3.359
						c0.034-1.758,0.708-3.265,2.053-4.481c1.332-1.197,3.163-1.794,5.436-1.772c2.164,0.013,3.839,0.571,5.015,1.635
						c1.172,1.089,1.744,2.415,1.723,3.936c-0.02,1.176-0.362,2.2-1.064,3.072c-0.683,0.889-1.819,1.664-3.424,2.396
						c1.721,1.317,2.826,2.435,3.307,3.267c0.461,0.862,0.717,1.822,0.703,2.94c-0.024,1.467-0.652,2.748-1.894,3.844
						c-1.262,1.091-2.959,1.626-5.136,1.608c-2.091-0.008-3.695-0.501-4.805-1.516c-1.125-0.979-1.657-2.185-1.643-3.557
						c0.004-1.028,0.312-1.941,0.924-2.72C440.35,832.304,441.317,831.604,442.584,830.982z M443.8,831.8
						c-0.402,0.56-0.704,1.143-0.889,1.81c-0.222,0.676-0.312,1.407-0.315,2.193c-0.015,1.406,0.283,2.487,0.878,3.22
						c0.432,0.583,1.071,0.875,1.848,0.874c0.726,0.005,1.345-0.242,1.852-0.753c0.526-0.539,0.766-1.174,0.771-1.939
						c0.02-0.797-0.254-1.618-0.821-2.464C446.579,833.898,445.478,832.918,443.8,831.8z M447.078,828.432
						c0.337-0.284,0.562-0.562,0.689-0.804c0.256-0.385,0.441-0.913,0.614-1.65c0.184-0.715,0.278-1.464,0.278-2.257
						c0.03-1.009-0.094-1.859-0.354-2.553c-0.239-0.688-0.628-1.168-1.088-1.478c-0.474-0.312-0.966-0.472-1.476-0.469
						c-0.8-0.008-1.445,0.27-1.994,0.835c-0.544,0.578-0.81,1.374-0.825,2.358C442.898,824.506,444.276,826.517,447.078,828.432z"/>
					<path fill="#646363" d="M421.548,828.652c0.125-2.203,0.524-4.204,1.253-6.072c0.441-1.141,0.966-2.049,1.635-2.763
						c0.669-0.707,1.382-1.265,2.196-1.647c0.813-0.394,1.683-0.567,2.602-0.532c1.066,0.068,2,0.392,2.814,0.979
						c0.825,0.579,1.531,1.382,2.143,2.429c0.411,0.753,0.778,1.751,1.063,2.987c0.378,1.665,0.519,3.366,0.408,5.131
						c-0.118,2.35-0.574,4.534-1.342,6.476c-0.649,1.625-1.557,2.832-2.71,3.648c-1.168,0.82-2.376,1.184-3.646,1.127
						c-1.241-0.075-2.392-0.578-3.463-1.507c-1.047-0.912-1.806-2.131-2.225-3.624C421.657,833.258,421.429,831.017,421.548,828.652
						z M426.511,828.946c-0.212,3.829-0.306,6.056-0.287,6.689c0.008,1.502,0.208,2.525,0.574,3.085
						c0.262,0.345,0.702,0.552,1.292,0.589c0.458,0.021,0.835-0.069,1.13-0.336c0.427-0.363,0.714-1.005,0.908-1.951
						c0.172-0.933,0.439-4.247,0.764-9.931c0.146-3.104,0.172-5.174,0.015-6.241c-0.119-0.776-0.321-1.3-0.615-1.568
						c-0.276-0.287-0.674-0.435-1.155-0.462c-0.547-0.029-0.956,0.13-1.258,0.452c-0.487,0.597-0.788,1.498-0.924,2.755
						L426.511,828.946z"/>
					<path fill="#514C4B" d="M326.966,797.674l12.21,4.123l-0.114,0.33c-5.25,3.207-8.532,5.443-9.85,6.706
						c-1.315,1.281-2.231,2.652-2.722,4.119c-0.369,1.068-0.33,2.059,0.094,3.004c0.433,0.926,1.114,1.551,2.083,1.886
						c1.568,0.515,3.057,0.148,4.457-1.119l0.478,0.384c-1.208,1.762-2.529,2.936-3.954,3.492c-1.446,0.558-2.917,0.599-4.362,0.109
						c-1.063-0.364-1.936-0.921-2.639-1.709c-0.719-0.783-1.171-1.675-1.354-2.709c-0.203-1.009-0.189-1.883,0.073-2.637
						c0.459-1.354,1.289-2.609,2.517-3.748c1.649-1.546,4.795-3.407,9.417-5.631l-4.506-1.509c-1.1-0.373-1.842-0.565-2.191-0.585
						c-0.35-0.021-0.677,0.034-0.968,0.198c-0.293,0.137-0.728,0.506-1.326,1.107l-0.534-0.201L326.966,797.674z"/>
					<path fill="#514C4B" d="M306.012,801.442c0.774-2.042,1.79-3.822,3.053-5.382c0.774-0.94,1.567-1.661,2.409-2.117
						c0.869-0.482,1.727-0.761,2.6-0.896c0.893-0.119,1.789-0.026,2.647,0.317c0.976,0.39,1.776,0.978,2.386,1.778
						c0.569,0.808,0.997,1.792,1.252,2.981c0.185,0.836,0.216,1.911,0.118,3.171c-0.174,1.709-0.567,3.368-1.219,5.015
						c-0.839,2.226-1.948,4.135-3.278,5.745c-1.12,1.341-2.347,2.23-3.735,2.65c-1.343,0.403-2.604,0.364-3.769-0.072
						c-1.186-0.468-2.139-1.306-2.852-2.496c-0.704-1.203-1.046-2.591-1.004-4.148C304.684,805.852,305.137,803.673,306.012,801.442
						z M310.636,803.269c-1.396,3.571-2.183,5.673-2.364,6.292c-0.449,1.413-0.57,2.454-0.393,3.101
						c0.137,0.404,0.472,0.738,1.047,0.945c0.437,0.169,0.822,0.174,1.156,0.044c0.511-0.2,1.017-0.729,1.478-1.573
						c0.481-0.837,1.741-3.915,3.794-9.224c1.136-2.895,1.772-4.869,1.945-5.931c0.141-0.78,0.109-1.338-0.082-1.673
						c-0.186-0.366-0.502-0.63-0.969-0.806c-0.498-0.2-0.952-0.18-1.322,0.06c-0.642,0.391-1.226,1.181-1.724,2.301L310.636,803.269
						z"/>
					<path fill="#514C4B" d="M290.391,794.642c0.867-2.003,1.974-3.745,3.309-5.24c0.803-0.907,1.621-1.594,2.507-2.008
						c0.847-0.434,1.735-0.705,2.621-0.771c0.91-0.069,1.767,0.061,2.624,0.44c0.961,0.423,1.722,1.047,2.291,1.871
						c0.564,0.837,0.935,1.854,1.137,3.036c0.139,0.853,0.119,1.923-0.04,3.17c-0.229,1.69-0.711,3.349-1.43,4.962
						c-0.944,2.169-2.117,4.036-3.543,5.582c-1.157,1.292-2.424,2.106-3.822,2.467c-1.373,0.354-2.633,0.272-3.784-0.214
						c-1.158-0.517-2.072-1.402-2.728-2.636c-0.656-1.243-0.939-2.629-0.825-4.173C288.857,798.992,289.427,796.832,290.391,794.642
						z M294.916,796.682c-1.54,3.511-2.426,5.552-2.629,6.152c-0.498,1.409-0.686,2.459-0.524,3.103
						c0.112,0.412,0.438,0.756,1.002,0.99c0.418,0.181,0.807,0.221,1.162,0.091c0.5-0.2,1.021-0.683,1.536-1.518
						c0.504-0.795,1.918-3.828,4.212-9.019c1.244-2.853,1.995-4.805,2.206-5.848c0.159-0.759,0.155-1.321-0.021-1.68
						c-0.156-0.365-0.481-0.638-0.938-0.851c-0.484-0.206-0.931-0.206-1.296-0.006c-0.671,0.374-1.277,1.122-1.844,2.24
						L294.916,796.682z"/>
					<path fill="#514C4B" d="M212.611,732.438l10,8.132l-0.217,0.274c-6.047,1.162-9.907,2.097-11.581,2.824
						c-1.686,0.721-3.011,1.706-3.995,2.9c-0.713,0.873-1.043,1.839-0.957,2.851c0.077,1.014,0.491,1.856,1.285,2.479
						c1.271,1.062,2.794,1.229,4.549,0.521l0.335,0.543c-1.744,1.215-3.405,1.857-4.949,1.886c-1.536,0.009-2.907-0.484-4.124-1.45
						c-0.845-0.692-1.469-1.533-1.855-2.511c-0.392-0.979-0.51-1.974-0.32-3.006c0.152-1.015,0.501-1.835,0.986-2.453
						c0.913-1.106,2.118-1.968,3.69-2.622c2.087-0.852,5.688-1.515,10.763-1.965l-3.666-2.988c-0.899-0.726-1.52-1.18-1.869-1.314
						c-0.301-0.14-0.645-0.203-0.976-0.182c-0.307,0.048-0.83,0.231-1.593,0.591l-0.446-0.367L212.611,732.438z"/>
					<path fill="#514C4B" d="M200.195,721.553l9.62,8.557l-0.248,0.26c-6.07,0.881-9.972,1.661-11.678,2.294
						c-1.728,0.662-3.087,1.567-4.11,2.722c-0.764,0.852-1.117,1.788-1.104,2.804c0.031,1.007,0.409,1.88,1.173,2.542
						c1.228,1.107,2.748,1.355,4.545,0.717l0.277,0.56c-1.786,1.147-3.462,1.698-5.014,1.661c-1.545-0.062-2.9-0.585-4.038-1.64
						c-0.828-0.739-1.419-1.598-1.754-2.594c-0.339-0.992-0.39-2.006-0.197-3.006c0.219-1.025,0.579-1.803,1.117-2.411
						c0.939-1.07,2.194-1.875,3.795-2.453c2.125-0.769,5.739-1.248,10.849-1.488l-3.531-3.136c-0.87-0.771-1.464-1.239-1.792-1.41
						c-0.336-0.14-0.649-0.222-0.974-0.197c-0.344,0.034-0.864,0.186-1.641,0.51l-0.427-0.404L200.195,721.553z"/>
					<path fill="#514C4B" d="M179.459,716.805c1.548-1.577,3.192-2.822,4.927-3.746c1.098-0.574,2.118-0.917,3.062-1.004
						c0.972-0.11,1.876-0.026,2.765,0.199c0.856,0.245,1.622,0.672,2.299,1.301c0.73,0.752,1.229,1.616,1.465,2.595
						c0.246,0.966,0.242,2.062,0.012,3.229c-0.171,0.854-0.562,1.85-1.156,2.974c-0.811,1.487-1.834,2.886-3.076,4.12
						c-1.651,1.711-3.407,3.032-5.292,4.005c-1.532,0.789-3.013,1.117-4.434,0.964c-1.414-0.17-2.576-0.67-3.442-1.538
						c-0.91-0.897-1.472-2.04-1.646-3.43c-0.183-1.399,0.042-2.798,0.699-4.188C176.524,720.337,177.792,718.503,179.459,716.805z
						 M183.001,720.285c-2.672,2.751-4.207,4.367-4.628,4.85c-0.956,1.135-1.494,2.052-1.561,2.706
						c-0.056,0.428,0.152,0.872,0.573,1.293c0.339,0.326,0.685,0.484,1.049,0.49c0.534,0.011,1.22-0.281,1.995-0.87
						c0.75-0.572,3.124-2.903,7.111-6.989c2.147-2.221,3.532-3.779,4.124-4.688c0.417-0.662,0.583-1.176,0.562-1.579
						c-0.03-0.397-0.234-0.769-0.586-1.125c-0.385-0.364-0.787-0.531-1.235-0.474c-0.74,0.127-1.571,0.609-2.499,1.464
						L183.001,720.285z"/>
					<path fill="#514C4B" d="M137.055,645.391l6.974,10.83l-0.307,0.178c-6.088-0.767-10.064-1.069-11.875-0.902
						c-1.81,0.166-3.371,0.662-4.681,1.503c-0.941,0.608-1.568,1.417-1.808,2.409c-0.263,0.99-0.106,1.928,0.449,2.767
						c0.885,1.387,2.283,2.021,4.177,1.893l0.138,0.635c-2.059,0.629-3.826,0.708-5.291,0.237c-1.48-0.455-2.62-1.354-3.469-2.642
						c-0.597-0.933-0.935-1.935-0.995-2.971c-0.039-1.062,0.139-2.033,0.637-2.942c0.472-0.932,1.058-1.609,1.706-2.036
						c1.2-0.769,2.644-1.226,4.313-1.346c2.279-0.184,5.898,0.33,10.857,1.485l-2.559-3.974c-0.618-0.994-1.082-1.593-1.349-1.83
						c-0.259-0.249-0.554-0.409-0.864-0.469c-0.33-0.069-0.906-0.05-1.726,0.048l-0.3-0.498L137.055,645.391z"/>
					<path fill="#514C4B" d="M127.974,646.458l-17.395-1.933l-0.985-1.692l12.187-7.088l-1.008-1.731l2.89-1.67l1.017,1.718
						l4.239-2.453l2.235,3.849l-4.243,2.449l3.979,6.868L127.974,646.458z M127.2,645.099l-3.178-5.51l-7.478,4.347L127.2,645.099z"
						/>
					<path fill="#514C4B" d="M110.437,620.206c1.951-1.027,3.88-1.678,5.854-2.022c1.197-0.23,2.273-0.223,3.209-0.002
						c0.958,0.194,1.795,0.536,2.544,1.048c0.762,0.486,1.348,1.139,1.772,1.963c0.491,0.938,0.704,1.899,0.61,2.903
						c-0.086,1.016-0.415,2.023-0.994,3.081c-0.438,0.758-1.106,1.571-2.028,2.456c-1.231,1.164-2.653,2.168-4.196,2.977
						c-2.105,1.097-4.193,1.806-6.259,2.142c-1.734,0.277-3.231,0.117-4.533-0.463c-1.292-0.588-2.229-1.448-2.806-2.548
						c-0.585-1.133-0.768-2.389-0.503-3.752c0.268-1.383,0.921-2.652,1.99-3.763C106.539,622.639,108.327,621.309,110.437,620.206z
						 M112.706,624.615c-3.4,1.776-5.366,2.836-5.894,3.156c-1.281,0.793-2.075,1.499-2.342,2.099
						c-0.186,0.415-0.136,0.866,0.151,1.397c0.214,0.424,0.498,0.673,0.838,0.807c0.537,0.163,1.237,0.106,2.153-0.219
						c0.905-0.305,3.893-1.79,8.941-4.423c2.739-1.438,4.542-2.487,5.366-3.168c0.604-0.487,0.956-0.936,1.049-1.335
						c0.072-0.39,0.019-0.801-0.208-1.238c-0.249-0.469-0.595-0.759-1.022-0.83c-0.752-0.129-1.69,0.075-2.829,0.605
						L112.706,624.615z"/>
					<path fill="#514C4B" d="M92.199,539.156l3.28,12.444l-0.336,0.103c-5.567-2.614-9.225-4.137-11.002-4.528
						c-1.798-0.401-3.448-0.396-4.939-0.014c-1.091,0.287-1.907,0.862-2.446,1.732c-0.561,0.87-0.708,1.797-0.45,2.777
						c0.436,1.602,1.558,2.641,3.403,3.087l-0.051,0.645c-2.157-0.038-3.849-0.51-5.118-1.388c-1.259-0.902-2.091-2.091-2.483-3.597
						c-0.285-1.073-0.29-2.115-0.035-3.124c0.281-1.021,0.782-1.903,1.515-2.63c0.732-0.727,1.485-1.184,2.24-1.386
						c1.401-0.376,2.891-0.357,4.522,0.044c2.206,0.535,5.494,2.115,9.889,4.737l-1.222-4.567c-0.301-1.118-0.54-1.83-0.726-2.145
						c-0.175-0.312-0.403-0.544-0.682-0.711c-0.302-0.15-0.845-0.321-1.66-0.491l-0.127-0.557L92.199,539.156z"/>
					<path fill="#514C4B" d="M66.347,525.948l0.447-0.093c0.88,1.786,1.838,3.204,2.856,4.18c1.006,0.983,2.134,1.688,3.364,2.132
						c1.239,0.433,2.69,0.666,4.389,0.681c-0.411-0.402-0.712-0.735-0.851-1.035c-0.376-0.631-0.64-1.303-0.776-1.985
						c-0.35-1.597-0.068-3.054,0.871-4.388c0.934-1.329,2.396-2.202,4.398-2.617c1.421-0.316,2.777-0.309,4.086,0.013
						c1.302,0.325,2.374,0.951,3.249,1.884c0.887,0.918,1.444,1.985,1.706,3.188c0.299,1.312,0.175,2.624-0.278,3.885
						c-0.496,1.271-1.339,2.373-2.611,3.297c-1.253,0.93-2.677,1.565-4.321,1.917c-2.401,0.515-4.759,0.427-7.079-0.278
						c-2.309-0.706-4.317-1.971-6-3.829C68.112,531.039,66.956,528.738,66.347,525.948z M78.723,532.769
						c1.466-0.229,2.521-0.423,3.192-0.552c1.471-0.336,2.841-0.771,4.13-1.342c1.306-0.58,2.171-1.158,2.608-1.769
						c0.322-0.421,0.422-0.866,0.324-1.346c-0.102-0.491-0.474-0.872-1.13-1.125c-0.632-0.253-1.824-0.193-3.553,0.186
						c-2.894,0.626-4.828,1.425-5.769,2.346c-0.616,0.618-0.841,1.296-0.69,2.079C77.944,531.646,78.238,532.168,78.723,532.769z"/>
					<path fill="#514C4B" d="M74.601,507.03c2.17-0.392,4.221-0.423,6.198-0.136c1.208,0.173,2.221,0.506,3.065,0.979
						c0.835,0.48,1.521,1.093,2.099,1.772c0.565,0.707,0.919,1.521,1.065,2.428c0.182,1.039,0.078,2.021-0.305,2.946
						c-0.401,0.944-1.027,1.806-1.899,2.624c-0.644,0.585-1.544,1.163-2.679,1.717c-1.544,0.717-3.169,1.248-4.907,1.534
						c-2.348,0.408-4.563,0.432-6.64,0.126c-1.708-0.268-3.086-0.89-4.156-1.827c-1.053-0.96-1.685-2.051-1.877-3.296
						c-0.226-1.245-0.001-2.492,0.688-3.735c0.671-1.238,1.663-2.215,3.043-2.976C70.159,508.135,72.26,507.41,74.601,507.03z
						 M75.415,511.915c-3.794,0.659-5.98,1.047-6.582,1.194c-1.482,0.354-2.421,0.78-2.89,1.278
						c-0.28,0.328-0.392,0.786-0.278,1.354c0.07,0.494,0.256,0.805,0.575,1.029c0.429,0.34,1.128,0.485,2.082,0.484
						c0.974-0.031,4.271-0.532,9.868-1.49c3.064-0.517,5.084-0.958,6.093-1.353c0.732-0.291,1.2-0.604,1.385-0.933
						c0.213-0.349,0.285-0.764,0.191-1.257c-0.1-0.526-0.314-0.903-0.729-1.107c-0.65-0.337-1.612-0.438-2.858-0.29L75.415,511.915z
						"/>
					<path fill="#514C4B" d="M83.907,407.842l-1.332,12.831l-0.361-0.037c-4.265-4.417-7.156-7.145-8.688-8.132
						c-1.541-1.02-3.089-1.6-4.609-1.771c-1.126-0.108-2.106,0.16-2.917,0.765c-0.803,0.611-1.278,1.426-1.375,2.433
						c-0.169,1.651,0.52,3.025,2.075,4.099l-0.288,0.571c-1.983-0.792-3.416-1.805-4.266-3.103c-0.861-1.284-1.224-2.697-1.07-4.22
						c0.13-1.121,0.48-2.096,1.09-2.953c0.603-0.858,1.389-1.504,2.332-1.918c0.955-0.43,1.819-0.589,2.597-0.512
						c1.422,0.149,2.819,0.706,4.197,1.65c1.878,1.275,4.4,3.927,7.574,7.929l0.483-4.701c0.12-1.165,0.153-1.925,0.091-2.274
						c-0.063-0.355-0.2-0.662-0.417-0.893c-0.191-0.266-0.647-0.615-1.353-1.049l0.066-0.586L83.907,407.842z"/>
					<path fill="#514C4B" d="M73.641,392.035c1.338-1.371,2.542-2.262,3.58-2.711c1.06-0.445,2.196-0.573,3.457-0.394
						c1.755,0.261,3.133,1.137,4.138,2.634c1.005,1.501,1.342,3.376,1.005,5.627c-0.315,2.14-1.087,3.72-2.303,4.723
						c-1.242,1.033-2.618,1.419-4.144,1.191c-1.153-0.174-2.129-0.662-2.896-1.467c-0.766-0.812-1.393-2.057-1.876-3.748
						c-1.581,1.529-2.813,2.463-3.707,2.827c-0.918,0.362-1.917,0.461-3.003,0.288c-1.436-0.219-2.636-0.999-3.541-2.409
						c-0.927-1.395-1.239-3.164-0.911-5.3c0.313-2.071,1.038-3.574,2.171-4.552c1.137-0.969,2.387-1.342,3.746-1.129
						c1.03,0.145,1.892,0.586,2.592,1.288C72.625,389.625,73.197,390.661,73.641,392.035z M72.644,393.111
						c-0.465-0.462-1.033-0.847-1.671-1.131c-0.624-0.298-1.331-0.497-2.117-0.617c-1.391-0.209-2.49-0.069-3.308,0.423
						c-0.633,0.352-1.011,0.937-1.123,1.724c-0.11,0.708,0.052,1.352,0.5,1.922c0.448,0.59,1.042,0.943,1.807,1.037
						c0.78,0.116,1.626-0.032,2.558-0.464C70.194,395.565,71.327,394.602,72.644,393.111z M75.54,396.817
						c0.239,0.38,0.485,0.633,0.703,0.804c0.343,0.27,0.846,0.56,1.54,0.837c0.69,0.263,1.426,0.474,2.205,0.589
						c0.98,0.166,1.848,0.152,2.558-0.008c0.713-0.149,1.277-0.457,1.633-0.884c0.366-0.421,0.592-0.883,0.667-1.382
						c0.108-0.771-0.072-1.481-0.567-2.099c-0.5-0.602-1.21-1.004-2.213-1.146C79.999,393.224,77.828,394.305,75.54,396.817z"/>
					<path fill="#514C4B" d="M78.827,371.522c2.148,0.421,4.096,1.114,5.828,2.084c1.077,0.577,1.918,1.254,2.537,2.005
						c0.607,0.748,1.058,1.538,1.329,2.398c0.271,0.861,0.308,1.74,0.138,2.647c-0.2,1.031-0.637,1.921-1.34,2.643
						c-0.687,0.745-1.579,1.322-2.688,1.777c-0.801,0.323-1.854,0.553-3.112,0.665c-1.702,0.139-3.418,0.028-5.146-0.305
						c-2.327-0.45-4.402-1.199-6.242-2.245c-1.508-0.852-2.586-1.892-3.222-3.173c-0.657-1.26-0.866-2.517-0.622-3.741
						c0.255-1.261,0.893-2.334,1.963-3.24c1.06-0.924,2.37-1.511,3.902-1.724C74.258,370.986,76.5,371.055,78.827,371.522z
						 M77.841,376.402c-3.754-0.74-5.947-1.153-6.589-1.22c-1.498-0.192-2.526-0.126-3.125,0.171
						c-0.39,0.194-0.632,0.58-0.754,1.184c-0.107,0.465-0.04,0.851,0.174,1.141c0.289,0.472,0.896,0.856,1.809,1.18
						c0.899,0.331,4.156,1.021,9.72,2.128c3.067,0.594,5.121,0.882,6.177,0.897c0.808-0.02,1.343-0.166,1.653-0.394
						c0.318-0.266,0.51-0.623,0.604-1.099c0.11-0.525,0.018-0.95-0.262-1.317c-0.507-0.541-1.37-0.973-2.585-1.275L77.841,376.402z"
						/>
					<path fill="#514C4B" d="M108.714,285.036l-0.507-0.249c0.231-1.262,0.308-2.173,0.255-2.748
						c-0.062-0.547-0.307-1.126-0.714-1.716c-0.419-0.591-0.913-1.032-1.483-1.307c-0.799-0.411-1.642-0.444-2.497-0.155
						c-0.867,0.297-1.51,0.877-1.944,1.76c-0.668,1.336-0.543,2.844,0.421,4.484l-0.447,0.444c-1.272-1.482-2.04-2.987-2.295-4.48
						c-0.285-1.477-0.081-2.881,0.578-4.216c0.684-1.368,1.66-2.272,2.922-2.738c1.26-0.46,2.458-0.434,3.559,0.116
						c0.723,0.367,1.299,0.924,1.782,1.655c0.474,0.742,0.738,1.674,0.812,2.807c1.112-0.846,2.209-1.374,3.325-1.572
						c1.1-0.192,2.26,0.028,3.461,0.635c2.05,1.007,3.412,2.622,4.104,4.82c0.697,2.182,0.44,4.526-0.791,7.003
						c-0.845,1.662-1.712,2.737-2.647,3.219c-0.672,0.369-1.286,0.395-1.905,0.083c-0.44-0.216-0.737-0.563-0.891-1.026
						c-0.165-0.469-0.127-0.939,0.074-1.34c0.159-0.312,0.375-0.587,0.646-0.795c0.15-0.126,0.854-0.448,2.088-1.006
						c1.24-0.564,2.05-1.263,2.478-2.083c0.338-0.702,0.366-1.459,0.049-2.243c-0.302-0.797-0.898-1.406-1.76-1.84
						c-1.331-0.653-2.761-0.799-4.335-0.43C111.461,282.482,110.038,283.455,108.714,285.036z"/>
					<path fill="#514C4B" d="M121.609,260.777c1.901,1.067,3.549,2.319,4.909,3.774c0.841,0.881,1.428,1.781,1.774,2.674
						c0.363,0.907,0.52,1.815,0.517,2.705c0.008,0.907-0.229,1.753-0.663,2.55c-0.51,0.926-1.213,1.642-2.103,2.114
						c-0.879,0.497-1.916,0.768-3.114,0.874c-0.854,0.042-1.899-0.07-3.146-0.352c-1.681-0.377-3.271-1.007-4.815-1.871
						c-2.057-1.166-3.818-2.506-5.231-4.047c-1.188-1.266-1.88-2.625-2.123-4.013c-0.221-1.408-0.028-2.665,0.587-3.753
						c0.629-1.116,1.573-1.939,2.876-2.479c1.288-0.553,2.69-0.689,4.228-0.443C117.411,258.874,119.521,259.616,121.609,260.777z
						 M119.153,265.125c-3.338-1.874-5.307-2.936-5.896-3.207c-1.347-0.631-2.37-0.893-3.016-0.798
						c-0.43,0.073-0.804,0.382-1.093,0.907c-0.209,0.386-0.284,0.783-0.181,1.118c0.13,0.558,0.584,1.113,1.338,1.69
						c0.774,0.583,3.64,2.252,8.613,5.029c2.724,1.504,4.585,2.417,5.617,2.739c0.756,0.228,1.304,0.274,1.684,0.127
						c0.375-0.145,0.683-0.435,0.91-0.86c0.273-0.467,0.313-0.898,0.16-1.317c-0.317-0.677-1.026-1.358-2.071-2.031L119.153,265.125
						z"/>
					<path fill="#514C4B" d="M130.487,246.204c1.849,1.157,3.433,2.492,4.734,4.005c0.799,0.926,1.347,1.831,1.641,2.742
						c0.317,0.923,0.464,1.836,0.412,2.74c-0.027,0.896-0.304,1.735-0.787,2.527c-0.553,0.896-1.282,1.564-2.182,2.001
						c-0.912,0.447-1.949,0.688-3.15,0.724c-0.89,0.025-1.92-0.139-3.136-0.473c-1.656-0.463-3.215-1.157-4.731-2.09
						c-2.019-1.229-3.71-2.664-5.04-4.287c-1.142-1.311-1.773-2.681-1.936-4.103c-0.161-1.429,0.086-2.659,0.744-3.718
						c0.67-1.081,1.664-1.864,2.982-2.359c1.323-0.478,2.713-0.556,4.245-0.235C126.382,244.112,128.433,244.974,130.487,246.204z
						 M127.837,250.442c-3.255-2.01-5.16-3.159-5.736-3.463c-1.333-0.69-2.316-1.007-2.989-0.927
						c-0.436,0.051-0.808,0.326-1.142,0.841c-0.225,0.393-0.296,0.766-0.233,1.147c0.125,0.519,0.54,1.109,1.284,1.709
						c0.73,0.627,3.53,2.426,8.391,5.411c2.637,1.622,4.462,2.629,5.476,2.99c0.717,0.266,1.287,0.345,1.667,0.218
						c0.382-0.129,0.702-0.392,0.958-0.822c0.292-0.452,0.33-0.875,0.197-1.306c-0.284-0.694-0.922-1.406-1.983-2.119
						L127.837,250.442z"/>
					<path fill="#514C4B" d="M188.811,175.708l-0.39-0.42c0.675-1.102,1.057-1.921,1.198-2.459c0.136-0.558,0.132-1.181-0.064-1.859
						c-0.178-0.709-0.463-1.302-0.919-1.757c-0.592-0.655-1.365-1.003-2.261-1.025c-0.933-0.027-1.749,0.284-2.44,0.946
						c-1.101,1.016-1.508,2.503-1.199,4.364l-0.57,0.264c-0.676-1.847-0.857-3.515-0.595-4.99c0.281-1.496,0.969-2.757,2.046-3.759
						c1.105-1.038,2.359-1.554,3.705-1.54c1.351-0.005,2.439,0.457,3.276,1.371c0.565,0.584,0.912,1.331,1.096,2.183
						c0.174,0.848,0.095,1.834-0.236,2.902c1.344-0.405,2.559-0.495,3.658-0.281c1.09,0.194,2.11,0.788,3.048,1.771
						c1.531,1.703,2.255,3.674,2.138,5.966c-0.126,2.282-1.208,4.386-3.231,6.281c-1.367,1.263-2.55,1.95-3.596,2.086
						c-0.739,0.102-1.333-0.105-1.811-0.6c-0.333-0.361-0.487-0.796-0.465-1.276c0.019-0.502,0.187-0.911,0.542-1.224
						c0.263-0.249,0.549-0.408,0.875-0.522c0.189-0.039,0.962-0.126,2.312-0.201c1.335-0.095,2.352-0.451,3.032-1.077
						c0.583-0.546,0.863-1.238,0.861-2.092c-0.021-0.843-0.35-1.624-1.011-2.329c-1.003-1.08-2.298-1.737-3.908-1.945
						C192.289,174.284,190.593,174.69,188.811,175.708z"/>
					<path fill="#514C4B" d="M215.212,166.975l-9.821,8.34l-0.208-0.278c-0.035-6.152-0.268-10.093-0.676-11.885
						c-0.418-1.791-1.115-3.283-2.136-4.455c-0.724-0.865-1.578-1.346-2.602-1.469c-1.012-0.124-1.904,0.138-2.69,0.815
						c-1.261,1.063-1.695,2.531-1.327,4.391l-0.59,0.22c-0.908-1.928-1.207-3.676-0.954-5.21c0.255-1.505,0.983-2.784,2.167-3.787
						c0.844-0.727,1.801-1.177,2.822-1.38c1.021-0.197,2.023-0.115,3.015,0.236c0.958,0.352,1.689,0.833,2.227,1.421
						c0.902,1.104,1.559,2.459,1.882,4.104c0.481,2.206,0.46,5.879-0.017,10.955l3.607-3.068c0.896-0.755,1.443-1.279,1.635-1.572
						c0.207-0.308,0.326-0.609,0.34-0.938c0.026-0.321-0.064-0.892-0.264-1.688l0.429-0.379L215.212,166.975z"/>
					<path fill="#514C4B" d="M222.825,147.078c1.338,1.717,2.362,3.518,3.019,5.411c0.427,1.13,0.619,2.19,0.6,3.138
						c-0.059,0.988-0.241,1.875-0.604,2.708c-0.334,0.813-0.907,1.516-1.631,2.074c-0.826,0.655-1.746,1.013-2.735,1.112
						c-1.019,0.102-2.087-0.053-3.207-0.444c-0.827-0.272-1.741-0.811-2.785-1.543c-1.352-1.02-2.588-2.234-3.663-3.608
						c-1.456-1.898-2.528-3.81-3.228-5.793c-0.573-1.642-0.686-3.144-0.346-4.532c0.363-1.384,1.032-2.447,2.016-3.204
						c1.008-0.792,2.217-1.168,3.619-1.167c1.401,0.016,2.752,0.444,4.063,1.28C219.728,143.667,221.369,145.178,222.825,147.078z
						 M218.886,150.094c-2.351-3.041-3.743-4.777-4.169-5.249c-0.986-1.126-1.824-1.752-2.465-1.94
						c-0.416-0.098-0.873,0.021-1.346,0.393c-0.388,0.288-0.583,0.619-0.626,0.969c-0.088,0.553,0.093,1.245,0.568,2.083
						c0.476,0.844,2.457,3.513,5.956,7.997c1.886,2.474,3.254,4.04,4.056,4.732c0.598,0.532,1.083,0.781,1.5,0.796
						c0.389,0.026,0.78-0.107,1.184-0.425c0.419-0.333,0.64-0.721,0.623-1.146c0.002-0.749-0.38-1.647-1.097-2.675L218.886,150.094z
						"/>
					<path fill="#514C4B" d="M302.361,101.71l-0.222-0.516c1.021-0.795,1.665-1.417,1.977-1.88c0.344-0.483,0.544-1.053,0.619-1.771
						c0.085-0.729,0.013-1.37-0.258-1.966c-0.321-0.832-0.917-1.424-1.765-1.759c-0.833-0.347-1.717-0.336-2.615,0.044
						c-1.387,0.549-2.283,1.781-2.646,3.652l-0.626,0.024c0.013-1.939,0.44-3.571,1.213-4.861c0.777-1.304,1.86-2.246,3.228-2.8
						c1.407-0.573,2.742-0.618,4.004-0.133c1.258,0.482,2.127,1.289,2.593,2.435c0.318,0.747,0.392,1.57,0.253,2.429
						c-0.141,0.862-0.569,1.757-1.254,2.651c1.39,0.087,2.591,0.41,3.54,1.001c0.959,0.579,1.676,1.494,2.2,2.745
						c0.852,2.112,0.847,4.221-0.083,6.339c-0.939,2.102-2.672,3.686-5.24,4.734c-1.729,0.702-3.075,0.93-4.109,0.684
						c-0.719-0.16-1.243-0.555-1.471-1.2c-0.205-0.451-0.188-0.916,0.007-1.359c0.187-0.454,0.504-0.785,0.933-0.955
						c0.322-0.139,0.667-0.191,1.014-0.169c0.196,0.001,0.933,0.217,2.228,0.614c1.302,0.395,2.368,0.421,3.213,0.079
						c0.728-0.318,1.255-0.875,1.545-1.672c0.286-0.785,0.253-1.627-0.113-2.545c-0.575-1.345-1.567-2.41-2.991-3.194
						C306.121,101.618,304.388,101.397,302.361,101.71z"/>
					<path fill="#514C4B" d="M315.321,99.375l5.069-16.771l1.85-0.654l4.725,13.305l1.89-0.682l1.109,3.147l-1.888,0.689
						l1.644,4.609l-4.17,1.489l-1.641-4.628l-7.495,2.666L315.321,99.375z M316.781,98.845l5.997-2.107l-2.898-8.144L316.781,98.845
						z"/>
					<path fill="#514C4B" d="M344.251,86.886c0.649,2.088,0.972,4.124,0.947,6.125c-0.009,1.216-0.196,2.266-0.559,3.161
						c-0.378,0.893-0.889,1.654-1.514,2.319c-0.607,0.633-1.357,1.107-2.257,1.379c-0.991,0.308-1.976,0.343-2.946,0.068
						c-0.99-0.263-1.933-0.765-2.862-1.541c-0.67-0.544-1.353-1.352-2.042-2.419c-0.93-1.44-1.652-2.994-2.177-4.661
						c-0.701-2.282-1.026-4.464-0.991-6.563c0.043-1.748,0.472-3.194,1.283-4.359c0.811-1.168,1.815-1.944,2.998-2.308
						c1.22-0.378,2.49-0.318,3.791,0.184c1.296,0.511,2.42,1.377,3.363,2.628C342.555,82.606,343.545,84.608,344.251,86.886z
						 M339.486,88.322c-1.126-3.655-1.807-5.785-2.025-6.374c-0.561-1.403-1.098-2.282-1.64-2.685
						c-0.363-0.238-0.82-0.274-1.413-0.097c-0.435,0.134-0.74,0.363-0.916,0.698c-0.282,0.477-0.341,1.184-0.179,2.132
						c0.136,0.966,1.051,4.163,2.742,9.592c0.925,2.96,1.633,4.92,2.147,5.862c0.371,0.687,0.753,1.101,1.11,1.269
						c0.381,0.148,0.788,0.145,1.257,0.016c0.516-0.162,0.866-0.456,1-0.862c0.271-0.699,0.239-1.667-0.083-2.884L339.486,88.322z"
						/>
				</g>
			</g>
			<g>
				<path fill="#646363" d="M442.104,170.856l27.576,35.534l0.302-24.35c0.048-3.406-0.418-5.711-1.377-6.941
					c-1.321-1.641-3.566-2.446-6.723-2.429l0.012-1.565l18.846,0.231l-0.028,1.572c-2.407,0.272-4.05,0.659-4.868,1.135
					c-0.838,0.475-1.485,1.26-1.963,2.374c-0.473,1.089-0.741,2.985-0.764,5.669l-0.59,47.286l-1.443-0.011l-37.831-47.815
					l-0.444,36.158c-0.035,3.26,0.687,5.479,2.158,6.636c1.476,1.161,3.183,1.753,5.118,1.779l1.343,0.016l-0.031,1.565
					l-20.166-0.256l0.013-1.562c3.13,0.014,5.323-0.595,6.57-1.834c1.236-1.242,1.876-3.375,1.93-6.387l0.485-40.126l-1.187-1.511
					c-1.177-1.525-2.223-2.52-3.15-3.015c-0.913-0.48-2.245-0.763-3.966-0.834l0.025-1.575L442.104,170.856z"/>
			</g>
			<g>
				<path fill="#646363" d="M675.92,435.062c-0.008,4.743,0.271,7.969,0.805,9.704c0.932,2.951,2.359,5.235,4.312,6.865
					c1.981,1.62,5.205,2.885,9.717,3.789l-0.009,1.715l-18.489-0.036l0.118-52.32l1.708-0.005l-0.002,2.072
					c-0.008,2.024,0.437,3.611,1.281,4.773c0.577,0.844,1.422,1.399,2.474,1.715c0.656,0.145,2.384,0.239,5.2,0.233l41.096,0.088
					c3.131,0.015,5.046-0.157,5.793-0.494c1.039-0.427,1.771-1.041,2.199-1.833c0.644-1.104,0.964-2.553,0.976-4.366l0.001-2.071
					l1.736-0.005l-0.118,54.065l-19.858,2.777l0.006-1.718c5.535-1.532,9.648-4.04,12.369-7.56c2.716-3.522,4.076-8.206,4.094-14.04
					l-0.008-3.741c0.022-1.775-0.224-3.079-0.725-3.865c-0.486-0.815-1.117-1.374-1.87-1.658c-0.777-0.29-2.882-0.442-6.314-0.448
					l-17.604-0.032c-0.007,2.993,0.374,5.271,1.147,6.853c0.793,1.575,2.317,2.954,4.583,4.146c2.268,1.195,5.174,1.987,8.74,2.362
					l-0.002,1.713l-32.675-0.068v-1.713c4.851-0.484,8.519-1.615,11.017-3.41c2.48-1.771,3.731-4.662,3.752-8.646l-0.009-1.246
					l-25.43-0.051L675.92,435.062z"/>
			</g>
			<g>
				<path fill="#646363" d="M473.43,719.515l1.908-19.848l-2.029-0.136c-1.318,4.918-3.937,8.772-7.887,11.556
					c-3.948,2.763-8.086,4.003-12.443,3.706c-3.359-0.24-5.975-1.221-7.815-2.941c-1.838-1.742-2.691-3.646-2.56-5.72
					c0.109-1.325,0.536-2.466,1.299-3.448c1.04-1.308,2.654-2.556,4.866-3.753c1.614-0.865,5.306-2.332,11.08-4.402
					c8.079-2.888,13.594-5.745,16.53-8.604c2.918-2.854,4.52-6.264,4.79-10.188c0.34-4.968-1.547-9.417-5.646-13.31
					c-4.111-3.88-9.509-6.064-16.231-6.537c-2.104-0.149-4.111-0.076-6,0.162c-1.909,0.253-4.31,0.816-7.218,1.692
					c-1.624,0.479-2.934,0.681-3.961,0.608c-0.849-0.055-1.739-0.415-2.648-1.078c-0.907-0.669-1.615-1.638-2.127-2.905
					l-1.843-0.112l-1.563,22.505l1.853,0.128c1.873-6.202,4.989-10.826,9.354-13.865c4.35-3.021,8.905-4.361,13.688-4.034
					c3.662,0.249,6.54,1.356,8.613,3.284c2.051,1.939,3.003,4.089,2.839,6.467c-0.097,1.404-0.615,2.735-1.537,3.987
					c-0.937,1.257-2.299,2.434-4.088,3.499c-1.807,1.055-4.937,2.396-9.41,3.992c-6.287,2.26-10.819,4.204-13.603,5.897
					c-2.776,1.698-4.979,3.646-6.549,5.857c-1.592,2.208-2.473,4.709-2.665,7.486c-0.327,4.739,1.339,8.908,5.021,12.514
					c3.686,3.626,8.504,5.633,14.45,6.035c2.173,0.15,4.287,0.066,6.368-0.267c1.559-0.239,3.494-0.765,5.782-1.571
					c2.291-0.801,3.868-1.17,4.756-1.109c0.854,0.069,1.505,0.354,1.979,0.849c0.462,0.511,0.829,1.674,1.144,3.494L473.43,719.515z
					"/>
			</g>
			<g>
				<path fill="#514C4B" d="M183.946,490.567l1.651-0.065c0.041-1.105,0.317-2.068,0.812-2.843c0.494-0.784,1.271-1.491,2.335-2.124
					c0.336-0.183,2.594-1.178,6.761-2.989l48.636-20.468l-0.067-1.703l-39.312-13.163l38.136-17.718l-0.072-1.551l-49.617-17.596
					c-4.966-1.801-7.979-3.069-9.026-3.813c-1.069-0.745-1.714-2.049-1.965-3.906l-1.65,0.055l0.984,25.628l1.656-0.051
					c-0.027-2.078,0.234-3.453,0.785-4.166c0.54-0.706,1.246-1.077,2.09-1.112c1.122-0.035,3.5,0.577,7.177,1.862l29.478,10.503
					l-22.372,10.208l-6.41-2.166c-3.508-1.221-5.853-2.165-7.053-2.828c-1.179-0.709-2.034-1.506-2.583-2.42
					c-0.528-0.929-0.826-2.31-0.904-4.154l-1.64,0.073l1.104,28.653l1.652-0.065c-0.063-2.009,0.048-3.461,0.319-4.341
					c0.178-0.619,0.498-1.111,0.974-1.48c0.472-0.374,1.017-0.573,1.627-0.591c0.674-0.029,2.769,0.551,6.3,1.729l28.725,9.709
					l-25.262,10.628c-2.595,1.125-4.391,1.826-5.349,2.089c-0.964,0.271-1.847,0.418-2.671,0.449
					c-1.209,0.049-2.182-0.315-2.891-1.109c-0.723-0.787-1.151-2.331-1.291-4.644l-1.66,0.074L183.946,490.567z"/>
			</g>
			<path fill="#A8A8A7" d="M294.275,326.333l24.771,0.358l-10.392-8.519c-1.457-1.181-2.606-1.781-3.467-1.784
				c-1.151,0.013-2.271,0.698-3.35,2.069l-0.654-0.554l6.538-7.986l0.666,0.538c-0.71,1.129-1.101,1.953-1.171,2.472
				c-0.081,0.524,0.032,1.078,0.333,1.666c0.309,0.565,1.04,1.331,2.167,2.264l20.142,16.484l-0.494,0.606l-33.519-0.132
				l15.368,12.578c1.388,1.14,2.591,1.594,3.598,1.36c1.013-0.231,1.856-0.759,2.531-1.594l0.458-0.561l0.654,0.538l-7.016,8.575
				l-0.656-0.542c1.078-1.336,1.557-2.479,1.462-3.454c-0.119-0.962-0.802-1.97-2.095-3.015l-17.061-13.964l-1.062-0.016
				c-1.064-0.016-1.869,0.095-2.378,0.315c-0.534,0.227-1.094,0.695-1.734,1.416l-0.661-0.539L294.275,326.333z"/>
			<path fill="#A8A8A7" d="M350.72,275.052l0.528,0.679c-0.442,0.386-0.744,0.813-0.906,1.275c-0.147,0.476-0.17,1.007-0.073,1.653
				c0.04,0.199,0.36,1.436,0.998,3.728l7.688,26.493l-0.731,0.545l-18.3-11.433l5.318,21.229l-0.681,0.503l-23.566-14.186
				c-2.382-1.419-3.911-2.22-4.558-2.391c-0.658-0.183-1.417-0.014-2.235,0.494l-0.512-0.672l10.818-8.16l0.515,0.676
				c-0.86,0.691-1.322,1.251-1.438,1.709c-0.123,0.464-0.023,0.865,0.231,1.227c0.357,0.461,1.398,1.219,3.138,2.275l14.023,8.43
				l-3.211-12.42l-3.019-1.87c-1.664-1.02-2.833-1.661-3.495-1.926c-0.674-0.25-1.283-0.327-1.837-0.24
				c-0.562,0.093-1.227,0.433-2,1.015l-0.507-0.688L339,283.891l0.509,0.68c-0.838,0.655-1.39,1.178-1.662,1.578
				c-0.2,0.272-0.298,0.581-0.287,0.888c0,0.321,0.098,0.598,0.295,0.858c0.215,0.283,1.141,0.944,2.795,1.962l13.437,8.405
				l-3.985-13.771c-0.405-1.42-0.71-2.376-0.918-2.848c-0.203-0.483-0.438-0.896-0.696-1.246c-0.379-0.497-0.849-0.771-1.4-0.801
				c-0.567-0.019-1.346,0.321-2.335,1.023l-0.51-0.687L350.72,275.052z"/>
			<path fill="#A8A8A7" d="M585.518,295.833l-0.589,24.748l8.589-10.296c1.213-1.44,1.815-2.584,1.826-3.434
				c0.009-1.167-0.664-2.287-2.006-3.372l0.546-0.661l7.916,6.622l-0.562,0.668c-1.115-0.729-1.935-1.128-2.46-1.218
				c-0.502-0.083-1.063,0.037-1.654,0.334c-0.574,0.298-1.34,1.017-2.294,2.148l-16.68,19.959l-0.6-0.496l0.469-33.51
				l-12.737,15.234c-1.152,1.375-1.624,2.577-1.389,3.578c0.224,1.016,0.75,1.858,1.569,2.537l0.575,0.461l-0.571,0.669
				l-8.489-7.116l0.534-0.646c1.331,1.089,2.489,1.585,3.438,1.49c0.969-0.096,1.992-0.786,3.04-2.053l14.147-16.922l0.025-1.056
				c0.021-1.061-0.063-1.854-0.303-2.375c-0.205-0.536-0.681-1.111-1.385-1.752l0.547-0.647L585.518,295.833z"/>
			<path fill="#A8A8A7" d="M613.58,325.712l-9.879,8.022l0.396,0.486c1.255,1.54,2.624,2.266,4.161,2.167
				c1.534-0.089,3.313-0.796,5.364-2.146l0.542,0.685l-12.699,10.298l-0.556-0.675c1.265-1.252,2.156-2.472,2.661-3.659
				c0.513-1.172,0.666-2.192,0.484-3.039c-0.19-0.857-0.75-1.866-1.704-3.023l-6.83,5.545c-1.333,1.084-2.104,1.809-2.307,2.165
				c-0.219,0.346-0.279,0.768-0.219,1.227c0.05,0.467,0.36,1.038,0.921,1.74l1.195,1.447c1.842,2.271,3.829,3.659,5.997,4.169
				c2.157,0.507,4.549,0.202,7.175-0.945l0.549,0.668l-8.622,5.166l-17.01-20.982l0.662-0.531l0.664,0.792
				c0.554,0.703,1.155,1.177,1.739,1.398c0.417,0.182,0.915,0.183,1.442,0.035c0.397-0.118,1.203-0.658,2.421-1.64l15.965-12.958
				c1.097-0.893,1.755-1.461,1.964-1.725c0.313-0.468,0.443-0.946,0.416-1.454c-0.03-0.727-0.362-1.486-1.01-2.284l-0.651-0.784
				l0.66-0.537l16.479,20.313l-7.17,5.822l-0.56-0.677c1.473-1.771,2.34-3.275,2.597-4.536c0.258-1.238,0.087-2.578-0.475-4.007
				c-0.322-0.85-1.225-2.193-2.73-4.021L613.58,325.712z"/>
			<path fill="#A8A8A7" d="M613.56,585.838l-8.342-6.245l0.57-0.743c2.331,1.275,4.671,1.702,6.99,1.312
				c2.333-0.38,4.114-1.378,5.381-2.962c0.966-1.241,1.389-2.466,1.3-3.722c-0.087-1.222-0.569-2.173-1.418-2.853
				c-0.544-0.428-1.137-0.675-1.746-0.755c-0.855-0.097-1.847,0.017-3.021,0.366c-0.837,0.239-2.579,1.006-5.205,2.269
				c-3.667,1.748-6.535,2.648-8.578,2.663c-2.027,0.003-3.863-0.63-5.464-1.899c-2.062-1.623-3.213-3.809-3.418-6.579
				c-0.223-2.756,0.625-5.376,2.57-7.825c0.608-0.784,1.251-1.444,1.949-2.015c0.704-0.574,1.684-1.19,2.925-1.902
				c0.699-0.379,1.189-0.756,1.487-1.135c0.241-0.307,0.371-0.743,0.42-1.287c0.033-0.541-0.104-1.118-0.437-1.714l0.52-0.673
				l9.281,7.286l-0.518,0.672c-3.03-1.521-5.827-2.054-8.37-1.62c-2.572,0.442-4.557,1.533-5.914,3.278
				c-1.077,1.369-1.554,2.729-1.443,4.111c0.103,1.385,0.65,2.461,1.612,3.229c0.58,0.455,1.281,0.746,2.058,0.868
				c0.786,0.111,1.681,0.043,2.649-0.201c0.985-0.24,2.501-0.846,4.541-1.822c2.848-1.377,5.06-2.256,6.59-2.626
				c1.543-0.366,3.009-0.438,4.349-0.204c1.385,0.212,2.64,0.779,3.782,1.676c1.972,1.537,3.065,3.581,3.297,6.086
				c0.267,2.529-0.477,4.873-2.182,7.063c-0.641,0.801-1.34,1.495-2.116,2.087c-0.593,0.464-1.407,0.934-2.436,1.443
				c-1.038,0.503-1.673,0.933-1.938,1.245c-0.248,0.316-0.348,0.647-0.283,0.977c0.031,0.334,0.371,0.871,0.981,1.612
				L613.56,585.838z"/>
			<path fill="#A8A8A7" d="M596.193,600.01l-8.521-9.418l-0.458,0.417c-1.466,1.318-2.117,2.746-1.944,4.268
				c0.179,1.522,0.981,3.262,2.44,5.23l-0.655,0.585l-10.984-12.128l0.668-0.595c1.33,1.202,2.592,2.025,3.793,2.477
				c1.205,0.445,2.226,0.546,3.062,0.313c0.847-0.236,1.831-0.855,2.927-1.861l-5.902-6.524c-1.161-1.272-1.937-1.998-2.295-2.192
				c-0.349-0.185-0.774-0.241-1.234-0.146c-0.451,0.072-1.011,0.418-1.684,1.019l-1.379,1.258c-2.163,1.956-3.441,4.038-3.854,6.202
				c-0.381,2.187,0.051,4.562,1.353,7.134l-0.644,0.568l-5.619-8.311l20.035-18.119l0.567,0.627l-0.775,0.698
				c-0.671,0.612-1.098,1.218-1.303,1.834c-0.162,0.424-0.13,0.905,0.057,1.437c0.132,0.383,0.719,1.162,1.765,2.317l13.79,15.253
				c0.945,1.047,1.562,1.659,1.833,1.849c0.478,0.295,0.957,0.423,1.483,0.353c0.71-0.077,1.452-0.451,2.196-1.123l0.763-0.705
				l0.579,0.64l-19.399,17.544l-6.189-6.847l0.648-0.595c1.853,1.371,3.386,2.159,4.65,2.348c1.266,0.184,2.591-0.05,3.994-0.685
				c0.807-0.37,2.103-1.358,3.858-2.94L596.193,600.01z"/>
			<path fill="#A8A8A7" d="M318.512,609.291l6.372-8.245l0.727,0.589c-1.276,2.312-1.767,4.637-1.402,6.962
				c0.349,2.337,1.312,4.136,2.886,5.427c1.217,0.983,2.453,1.438,3.677,1.369c1.239-0.073,2.212-0.541,2.883-1.387
				c0.446-0.53,0.714-1.116,0.797-1.731c0.098-0.834,0.002-1.846-0.316-3.023c-0.239-0.853-0.976-2.595-2.178-5.246
				c-1.718-3.695-2.566-6.575-2.555-8.614c0.041-2.039,0.7-3.855,2.016-5.452c1.629-2.033,3.841-3.136,6.602-3.307
				c2.767-0.185,5.375,0.713,7.809,2.687c0.769,0.627,1.42,1.288,1.981,2c0.542,0.706,1.17,1.689,1.844,2.945
				c0.386,0.696,0.755,1.216,1.123,1.505c0.31,0.263,0.733,0.401,1.281,0.439c0.539,0.047,1.116-0.095,1.723-0.41l0.653,0.548
				L347,605.504l-0.664-0.521c1.564-3.013,2.167-5.81,1.766-8.382c-0.402-2.565-1.466-4.546-3.192-5.957
				c-1.342-1.082-2.7-1.59-4.085-1.499c-1.395,0.083-2.467,0.604-3.257,1.573c-0.472,0.565-0.767,1.251-0.894,2.033
				c-0.132,0.781-0.085,1.665,0.144,2.644c0.224,1.006,0.816,2.53,1.765,4.581c1.32,2.882,2.159,5.083,2.5,6.638
				c0.368,1.555,0.408,3.005,0.154,4.37c-0.247,1.361-0.828,2.609-1.74,3.747c-1.584,1.938-3.619,3.001-6.166,3.212
				c-2.51,0.201-4.841-0.574-7.004-2.311c-0.797-0.646-1.479-1.355-2.078-2.152c-0.436-0.603-0.903-1.419-1.379-2.46
				c-0.499-1.045-0.911-1.699-1.219-1.962c-0.319-0.252-0.639-0.354-0.966-0.306c-0.345,0.051-0.886,0.37-1.636,0.978
				L318.512,609.291z"/>
			<path fill="#A8A8A7" d="M281.001,565.529l0.671-0.528c0.412,0.43,0.843,0.705,1.32,0.855c0.453,0.136,1.006,0.145,1.636,0.033
				c0.205-0.04,1.45-0.397,3.7-1.09l26.267-8.422l0.56,0.7l-10.92,18.616l21.081-5.896l0.521,0.67L312.3,594.408
				c-1.345,2.414-2.111,3.952-2.268,4.606c-0.156,0.665,0.032,1.417,0.565,2.248l-0.661,0.52l-8.457-10.583l0.664-0.543
				c0.701,0.842,1.3,1.304,1.743,1.397c0.47,0.091,0.865,0.01,1.213-0.276c0.467-0.368,1.196-1.429,2.215-3.189l8.033-14.259
				l-12.327,3.541l-1.799,3.099c-0.976,1.681-1.578,2.86-1.816,3.529c-0.234,0.698-0.29,1.303-0.194,1.85
				c0.105,0.555,0.471,1.211,1.066,1.967l-0.674,0.535l-9.431-11.843l0.669-0.531c0.672,0.825,1.212,1.362,1.617,1.64
				c0.284,0.18,0.585,0.265,0.896,0.249c0.326-0.017,0.608-0.128,0.852-0.329c0.278-0.218,0.909-1.163,1.899-2.834l8.02-13.683
				l-13.643,4.38c-1.43,0.439-2.374,0.771-2.847,0.994c-0.479,0.209-0.888,0.464-1.216,0.724c-0.481,0.399-0.745,0.88-0.744,1.434
				c-0.017,0.554,0.339,1.326,1.074,2.305l-0.673,0.521L281.001,565.529z"/>
			<g>
				<g>
					<path fill="#646363" d="M439.641,289.512c-0.048-5.408,1.235-9.797,2.869-9.805l14.785-0.129
						c1.637-0.025,3.001,4.335,3.044,9.749l0.803,90.457c0.051,5.39-1.239,9.789-2.86,9.795l-14.799,0.132
						c-1.635,0.023-2.996-4.354-3.042-9.75L439.641,289.512z"/>
					<polygon fill="#646363" points="470.87,300.962 429.178,301.341 449.631,256.894 					"/>
				</g>
				<polygon fill="#646363" points="527.542,379.976 518.512,370.48 560.479,330.601 569.503,340.085 				"/>
				<polygon fill="#646363" points="336.207,569.516 327.184,560.02 369.151,520.127 378.172,529.631 				"/>
				<polygon fill="#646363" points="454.062,604.927 440.983,605.025 440.543,547.125 453.631,547.033 				"/>
				<polygon fill="#646363" points="377.763,371.726 368.272,380.752 328.382,338.785 337.872,329.768 				"/>
				<polygon fill="#646363" points="567.626,562.373 558.141,571.394 518.255,529.419 527.742,520.408 				"/>
				<polygon fill="#646363" points="606.058,444.271 606.355,457.362 548.482,458.736 548.171,445.649 				"/>
				<polygon fill="#646363" points="283.978,445.27 283.926,458.364 337.4,458.826 337.458,445.727 				"/>
				<path fill="#646363" d="M448.812,580.499c-71.183,0.628-129.408-56.562-130.042-127.742
					c-0.622-71.196,56.576-129.415,127.764-130.037c71.179-0.632,129.395,56.567,130.025,127.754
					C577.194,521.657,520,579.874,448.812,580.499z"/>
				<path fill="#FFFFFF" d="M571.033,447.758c-0.611-67.762-56.02-122.192-123.777-121.598
					c-67.762,0.604-122.201,56-121.607,123.771L571.033,447.758z"/>
				<path fill="#646363" d="M448.803,558.959c-60.438,0.539-109.861-48.02-110.404-108.45
					c-0.528-60.427,48.041-109.853,108.463-110.385c60.429-0.544,109.855,48.015,110.382,108.454
					C557.773,509.005,509.225,558.425,448.803,558.959z"/>
				<path fill="#FFFFFF" d="M449.455,556.009c-58.234,0.532-105.872-46.264-106.376-104.512
					c-0.527-58.24,46.27-105.867,104.505-106.379c58.245-0.522,105.876,46.266,106.4,104.513
					C554.492,507.874,507.696,555.502,449.455,556.009z"/>
				<path fill="#646363" d="M448.89,400.956c27.095-0.233,49.262,21.53,49.506,48.622c0.234,27.121-21.543,49.277-48.64,49.517
					c-27.094,0.231-49.26-21.537-49.493-48.651C400.033,423.347,421.791,401.207,448.89,400.956z"/>
				<g>
					<g>
						<path fill="#646363" d="M438.167,371.37c0.038-4.405,1.38-7.956,3.013-7.942l14.803,0.105
							c1.624,0.026,2.925,3.597,2.883,8.006l-0.531,73.681c-0.03,4.394-1.378,7.953-3.007,7.944l-14.793-0.104
							c-1.633-0.013-2.931-3.586-2.898-8L438.167,371.37z"/>
						<polygon fill="#646363" points="469.226,381.158 427.526,380.848 448.642,344.965 						"/>
					</g>
					<g>
						<path fill="#646363" d="M457.448,529.73c-0.023,4.32-1.385,7.806-3.015,7.788l-14.785-0.104
							c-1.641-0.007-2.934-3.518-2.899-7.854l0.53-72.411c0.026-4.324,1.373-7.824,3.012-7.819l14.781,0.122
							c1.654,0.01,2.938,3.526,2.907,7.856L457.448,529.73z"/>
						<polygon fill="#646363" points="426.389,520.099 468.088,520.41 446.987,555.675 						"/>
					</g>
				</g>
				<g>
					<g>
						<path fill="#646363" d="M369.547,460.639c-4.404-0.036-7.957-1.379-7.946-3.018l0.114-14.784
							c0.016-1.641,3.591-2.938,7.989-2.907l73.688,0.549c4.398,0.023,7.951,1.374,7.949,3.01l-0.115,14.786
							c-0.004,1.628-3.586,2.923-7.985,2.9L369.547,460.639z"/>
						<polygon fill="#646363" points="379.338,429.576 379.015,471.28 343.13,450.165 						"/>
					</g>
					<g>
						<path fill="#646363" d="M527.893,441.355c4.332,0.03,7.819,1.375,7.803,3.018l-0.104,14.794
							c-0.009,1.626-3.525,2.911-7.845,2.89l-72.422-0.533c-4.325-0.024-7.83-1.374-7.812-3.006l0.105-14.784
							c0.016-1.645,3.539-2.942,7.856-2.904L527.893,441.355z"/>
						<polygon fill="#646363" points="518.271,472.412 518.587,430.717 553.854,451.82 						"/>
					</g>
				</g>
				<g>
					<g>
						<path fill="#646363" d="M398.105,512.275c-3.149,3.092-6.615,4.651-7.764,3.486l-10.381-10.537
							c-1.141-1.163,0.461-4.608,3.616-7.694l52.481-51.732c3.129-3.086,6.6-4.652,7.748-3.489l10.384,10.536
							c1.136,1.168-0.466,4.614-3.606,7.694L398.105,512.275z"/>
						<polygon fill="#646363" points="383.056,483.407 412.306,513.102 372.011,523.543 						"/>
					</g>
					<g>
						<path fill="#646363" d="M496.425,386.668c3.087-3.035,6.496-4.542,7.66-3.39l10.378,10.543
							c1.143,1.158-0.42,4.566-3.503,7.598l-51.577,50.825c-3.092,3.042-6.515,4.566-7.662,3.403l-10.375-10.545
							c-1.146-1.157,0.422-4.573,3.5-7.596L496.425,386.668z"/>
						<polygon fill="#646363" points="511.59,415.435 482.328,385.734 522.188,375.711 						"/>
					</g>
				</g>
				<g>
					<g>
						<path fill="#646363" d="M510.435,500.022c3.095,3.126,4.653,6.603,3.493,7.744l-10.543,10.374
							c-1.166,1.147-4.605-0.46-7.691-3.594l-51.728-52.489c-3.079-3.133-4.653-6.602-3.497-7.76l10.542-10.375
							c1.164-1.145,4.605,0.482,7.697,3.601L510.435,500.022z"/>
						<polygon fill="#646363" points="481.561,515.058 511.264,485.799 521.717,526.098 						"/>
					</g>
					<g>
						<path fill="#646363" d="M384.825,401.685c-3.03-3.086-4.549-6.5-3.369-7.656l10.524-10.376c1.167-1.135,4.567,0.42,7.602,3.5
							l50.831,51.583c3.041,3.081,4.557,6.511,3.386,7.655l-10.527,10.369c-1.171,1.153-4.564-0.424-7.608-3.492L384.825,401.685z"
							/>
						<polygon fill="#646363" points="413.606,386.523 383.89,415.787 373.867,375.928 						"/>
					</g>
				</g>
			</g>
			<g>
				<g>
					<path fill="#C8B512" d="M466.584,421.407c15.944,10.559,20.314,32.043,9.75,47.998c-10.554,15.947-32.044,20.319-47.991,9.754
						c-15.949-10.563-20.315-32.046-9.758-47.998C429.151,415.219,450.638,410.839,466.584,421.407z"/>
					<path fill="#BF9F46" d="M459.151,432.642c9.739,6.451,12.42,19.583,5.962,29.327c-6.468,9.754-19.591,12.414-29.341,5.968
						c-9.741-6.459-12.41-19.597-5.961-29.338C436.268,428.85,449.394,426.18,459.151,432.642z"/>
				</g>
				<path fill="#514C4B" d="M451.043,442.647c3.336,2.218,4.251,6.713,2.033,10.053c-2.205,3.35-6.7,4.259-10.042,2.05
					c-3.347-2.205-4.256-6.706-2.039-10.056C443.2,441.358,447.7,440.449,451.043,442.647z"/>
			</g>
		</g>
	</g>
</g>
</svg>
