<?xml version="1.0" encoding="UTF-8"?>
<!-- Generator: Adobe Illustrator 15.0.2, SVG Export Plug-In . SVG Version: 6.00 Build 0)  -->
<!DOCTYPE svg PUBLIC "-//W3C//DTD SVG 1.1//EN" "http://www.w3.org/Graphics/SVG/1.1/DTD/svg11.dtd">
<svg xmlns="http://www.w3.org/2000/svg" xmlns:xlink="http://www.w3.org/1999/xlink" version="1.1" id="Layer_1" x="0px" y="0px" width="511.999px" height="511.994px" viewBox="0.329 0 511.999 511.994" enable-background="new 0.329 0 511.999 511.994" xml:space="preserve">
<path d="M279.875,511.994c-1.292,0-2.607-0.102-3.924-0.312c-10.944-1.771-19.333-10.676-20.457-21.71L233.97,278.348  L22.345,256.823c-11.029-1.119-19.928-9.51-21.698-20.461c-1.776-10.944,4.031-21.716,14.145-26.262L477.792,2.149  c9.282-4.163,20.167-2.165,27.355,5.024c7.201,7.189,9.199,18.086,5.024,27.356L302.22,497.527  C298.224,506.426,289.397,511.994,279.875,511.994z M118.277,217.332l140.534,14.294c11.567,1.178,20.718,10.335,21.878,21.896  l14.294,140.519l144.09-320.792L118.277,217.332z" fill="#72624d"/>
</svg>
